<?xml version="1.0" encoding="utf-8"?>
<!-- Generator: Adobe Illustrator 12.0.0, SVG Export Plug-In . SVG Version: 6.00 Build 51448)  -->
<!DOCTYPE svg PUBLIC "-//W3C//DTD SVG 1.1//EN" "http://www.w3.org/Graphics/SVG/1.1/DTD/svg11.dtd" [
	<!ENTITY ns_svg "http://www.w3.org/2000/svg">
	<!ENTITY ns_xlink "http://www.w3.org/1999/xlink">
]>
<svg  version="1.1" id="Layer_1" xmlns="&ns_svg;" xmlns:xlink="&ns_xlink;" width="1200" height="1920" viewBox="0 0 1200 1920"
	 overflow="visible" enable-background="new 0 0 1200 1920" xml:space="preserve">
<rect fill="#FFFFFF" width="1200" height="1920"/>
<g id="layer1">
	<g>
		<path fill="#714037" d="M746.577,319.942l-38.333,2.342c-24.989,3.122-48.848,9.367-71.573,18.733l-33.24,16.392
			c-21.594,12.488-42.057,28.1-61.387,46.833l-28.147,30.441c-18.199,21.855-35.267,46.833-51.202,74.933
			c-10.603,14.018-17.909,33.933-21.92,59.744c-2.167,18.447,4.106,62.137,18.822,131.069l3.525,71.551
			c6.173,7.8,9.768,15.227,10.784,22.28c2.729,19.553,2.855,40.719,0.381,63.498c0.39,9.858,1.592,14.696,3.607,14.513
			l-14.592,47.598c-6.79,4.396-10.695,13.22-11.718,26.471c0.523,2.649,9.671,11.751,27.442,27.306
			c18.76,11.413,35.911,20.385,51.454,26.915c26.261,11.518,55.739,16.355,88.434,14.516c12.845-0.277,40.425-3.318,82.739-9.126
			c49.636-17.582,78.729-34.235,87.279-49.959c4.359-8.03,5.235-18.337,2.628-30.919c-1.865-3.298-5.284-7.197-10.256-11.697
			c-0.191-4.332-7.557-23.301-22.099-56.904c-2.6-7.867-3.706-13.425-3.32-16.675c3.091-7.932,5.624-12.688,7.6-14.266
			l38.277-32.139l24.927-40.15l11.983-60.917c22.546-52.14,35.228-89.506,38.045-112.097c1.812-9.512,3.11-18.703,3.895-27.572
			l-14.318-115.451c-3.599-8.111-5.993-14.462-7.185-19.052c1.313-9.428,1.634-16.171,0.963-20.229
			c-2.831-3.44-7.456-19.261-13.877-47.461c0.194-5.399-15.947-14.311-48.426-26.733
			C784.046,321.501,766.981,320.238,746.577,319.942"/>
	</g>
	<g>
		<path fill="#714037" d="M835.473,328.501l-1.005,0.058c-2.681,0.304-5.355,1.826-8.023,4.565l-28.311,137.817
			c2.751-0.331,4.895-0.438,6.431-0.319c16.765,3.28,27.028,4.472,30.791,3.573c6.474-0.406,13.29-1.831,20.447-4.274
			c2.995-1.348,5.482-3.186,7.463-5.515l2.948-4.096c0.655-1.483,1.119-2.792,1.392-3.926c1.554-5.844,2.917-11.513,4.089-17.008
			c0.292-3.656,0.407-6,0.347-7.031c0.017-5.158-0.427-11.626-1.332-19.404c-0.037-1.048,0.143-4.59,0.539-10.626
			c-0.885-14.726-1.002-22.979-0.352-24.762c-0.198-1.776-0.483-3.247-0.855-4.412c-1.156-2.964-3.14-9.275-5.947-18.935
			c-0.404-2.17-3.424-6.506-9.059-13.008l-16.568-12.193C837.246,328.634,836.248,328.466,835.473,328.501"/>
	</g>
	<g>
		<path fill="#714037" d="M822.747,691.17l-0.063,0.028c-0.143,0.146-0.086,0.841,0.172,2.085L777.24,821.065
			c1.494-2.515,5.367-6.786,11.62-12.813l6.181-7.914l18.787-17.721c5.18-6.271,8.354-10.914,9.525-13.93
			c1.989-5.674,3.388-10.87,4.197-15.59c0.462-2.536,0.834-5.128,1.115-7.776c0.282-2.648,0.474-5.354,0.576-8.115l0.085-4.185
			c-0.018-5.739-0.584-12.568-1.701-20.487c-0.24-1.819-1.668-7.369-4.283-16.65c-0.172-0.398-0.255-1.877-0.249-4.436
			L822.747,691.17 M777.224,821.092l-0.274,0.438l-0.238,0.417l-0.201,0.398l-0.164,0.378l-0.127,0.359l-0.091,0.339l-0.053,0.319
			l-0.017,0.3l0.021,0.28l1.152-3.229H777.224"/>
	</g>
	<g>
		<path fill="#714037" d="M826.935,727.244l-0.261,0.023c-0.709,0.123-1.538,0.74-2.487,1.85l-62.296,94.505l22.928-9.731
			c5.904-3.06,10.092-5.752,12.562-8.078l5.934-3.068c0.476-0.348,1.127-1.089,1.952-2.225l7.943-11.461
			c3.37-3.515,5.352-5.759,5.945-6.732l7.034-12.916c1.003-4.28,1.857-8.725,2.562-13.335c0.335-2.512,0.498-4.845,0.489-6.999
			l-0.453-19.925C828.459,728.029,827.842,727.394,826.935,727.244"/>
	</g>
	<g>
		<path fill="#53332D" d="M713.266,634.696l-0.357,0.247c-0.962,0.669-1.978,1.424-3.048,2.265l3.413-2.512H713.266
			 M802.449,622.354l-0.272,0.005c-1.96,0.213-2.842,0.424-2.644,0.633c-0.387,0.184-1.82,2.202-4.3,6.057
			c-0.11,0.302-1.432,1.28-3.967,2.936c-1.532,0.94-5.46,2.096-11.782,3.467c-3.749,0.598-6.695,0.854-8.84,0.768
			c-4.289-1.178-8.214-1.937-11.774-2.278c-4.77,0.832-9.648,1.188-14.634,1.063l-8.872-1.751c-2.174-0.19-4.287-0.442-6.341-0.756
			c-3.553-0.591-6.025-1.079-7.419-1.465l-0.662,0.048c-1.831,0.234-4.197,1.31-7.098,3.229l2.071-1.556l-2.554,1.879l0.43-0.283
			l-8.341,6.263c-0.101,0.021-0.342,0.337-0.724,0.946c-1.674,3.357-1.757,6.436-0.25,9.236c2.287,3.913,5.204,7.28,8.753,10.102
			c2.278,0.576,6.068,1.014,11.371,1.313c1.299,0.051,4.035-0.163,8.209-0.642c1.277-0.029,2.282,0.014,3.014,0.127
			c6.04,1.543,11.166,3.27,15.378,5.181c1.526,0.235,4.034,0.483,7.524,0.745l7.529,2.003c3.393,0.438,5.92,0.636,7.583,0.594
			c4.841-0.133,8.003-0.88,9.485-2.242c0.439-0.329,1.063-1.076,1.871-2.242c2.311-5.032,4.357-8.529,6.139-10.49
			c5.183-4.027,10.242-7.313,15.181-9.855c1.389-1.03,2.47-2.188,3.241-3.472c1.848-3.592,2.025-8.611,0.535-15.059
			C809.508,624.259,806.895,622.758,802.449,622.354"/>
	</g>
	<g>
		<path fill="#53332D" d="M759.459,760.054l-0.088,0.003c-0.236,0.014-0.498,0.084-0.784,0.21c-2.184,1.264-3.585,2.013-4.205,2.246
			l-1.859,0.702c-6.173,1.317-9.485,2.045-9.938,2.183l-9.322,3.056c-6.278,1.333-11.786,2.619-16.522,3.856
			c-2.202,0.462-4.453,0.75-6.751,0.866c-1.715,0.055-4.284,0.015-7.708-0.12c-1.078,0.034-1.848,0.072-2.31,0.117l-13.319,1.658
			c-1.282,0.326-2.358,0.803-3.229,1.43l-21.372,5.133c0.653,0.312,1.789,0.569,3.407,0.771c0.862,0.174,3.717,0.348,8.564,0.522
			c0.747,0.137,2.37,0.805,4.868,2.005c3.02,0.62,5.281,1.194,6.785,1.721c0.362,0.143,2.742,0.414,7.14,0.813
			c1.752-0.102,4.615-0.533,8.588-1.296c4.164-0.142,6.652-0.274,7.465-0.397c2.892-0.424,5.782-0.992,8.672-1.706
			c6.515-2.887,12.571-5.304,18.169-7.25l8.132-4.617c3.912-1.83,7.636-3.249,11.172-4.256c0.765-0.297,1.517-0.653,2.256-1.067
			C761.252,763.695,761.981,761.501,759.459,760.054"/>
	</g>
	<g>
		<path fill="#53332D" d="M867.693,501.405l-13.754,7.177c-1.556-0.173-12.927,2.544-34.114,8.149
			c-15.948,2.522-28.961,5.244-39.039,8.164c-17.79,5.281-34.124,10.896-49.003,16.843l-6.099,1.482
			c-17.908,3.313-41.746,7.118-71.513,11.42c-24.855,4.532-44.768,8.374-59.735,11.524c-11.085,1.92-23.11,2.869-36.076,2.847
			c-5.032,2.593-9.288,3.731-12.768,3.416l-1.58,6.072c1.688,1.88,3.479,3.614,5.37,5.204c8.892,6.608,16.751,10.393,23.579,11.354
			l7.414-0.422c5.995,0.844,10.843,1.226,14.543,1.146l10.015-0.533l19.626,1.812l4.71-0.093c2.652-0.075,9.037-0.905,19.154-2.489
			c6.34-2.031,12.373-3.511,18.097-4.439c8.436-1.282,14.125-1.645,17.069-1.087c6.006,0.477,15.027,2.231,27.065,5.264
			l18.253,15.452c1.628,1.045,4.005,1.103,7.131,0.173c1.999-0.466,3.709-1.084,5.13-1.853
			c14.071-12.255,23.962-19.37,29.673-21.345c2.973-1.067,5.573-1.019,7.803,0.146c1.007,0.578,4.025,3.47,9.055,8.675
			c0.937,0.722,2.062,0.938,3.377,0.646c8.938-9.744,15.433-15.261,19.482-16.552c5.034-3.07,17.608-6.296,37.724-9.676
			l18.032-7.318c1.352-0.551,3.719-2.044,7.1-4.478c2.311-1.909,3.495-3.712,3.553-5.406c0.029-0.847-0.224-1.668-0.758-2.461
			l6.743-40.946c-1.072,0.323-1.881,0.354-2.427,0.089C876.628,505.161,872.351,502.509,867.693,501.405"/>
	</g>
	<g>
		<path fill="#53332D" d="M746.798,320.311l-2.004,0.01c-3.564-0.01-6.681,0.203-9.351,0.641
			c-7.606,1.973-14.958,4.058-22.054,6.255c-14.635,4.511-30.024,9.933-46.169,16.267c-19.4,7.786-33.043,13.578-40.928,17.376
			c-5.674,2.523-12.574,7.081-20.699,13.673c-21.553,25.03-36.784,46.189-45.695,63.479l-6.468,13.109
			c-3.737,8.45-6.325,16.318-7.763,23.605c-1.438,7.287-1.728,13.993-0.867,20.117l12.156-42.9
			c21.554-34.388,36.142-54.652,43.762-60.795c9.958-8.526,20.165-14.954,30.621-19.284c37.831-13.405,60.914-22.096,69.249-26.072
			c4.285-1.183,11.502-2.934,21.65-5.254l13.026-1.883l61.125-4.048c5.178,0.071,11.462,1.222,18.854,3.451
			c3.387,1.216,6.774,3.286,10.164,6.209c4.253,3.094,12.497,16.809,24.731,41.147c4.353,33.438,8.138,52.485,11.356,57.146
			l1.181,1.072l16.548,5.249c2.55-4.49-0.721-23.161-9.812-56.011c-14.663-30.347-25.588-48.865-32.774-55.559
			c-5.203-4.736-17.58-9.583-37.132-14.54C779.183,321.323,761.613,320.503,746.798,320.311"/>
	</g>
	<g>
		<path fill="#53332D" d="M592.891,389.627l-0.805,0.121l-0.859,0.365l-0.912,0.607l-0.967,0.852l-1.02,1.095l-1.073,1.338
			l-1.127,1.581l-1.182,1.825l-1.234,2.068l10.553-9.419C593.736,389.741,593.278,389.596,592.891,389.627 M583.7,399.489
			l-61.752,55.111l-14.56,5.956c-9.284,4.391-17.722,9.624-25.313,15.698c-7.592,6.074-14.337,12.99-20.236,20.748
			c-11.636,14.594-20.213,34.398-25.73,59.412c-1.236,10.553,0.114,25.988,4.052,46.308c5.812,18.551,13.688,35.995,23.633,52.332
			c6.427,22.236,10.748,50.606,12.965,85.108c-1.241,47.109-3.519,86.412-6.832,117.909c-0.504,10.313-3.572,29.545-9.203,57.695
			c-2.435,9.894-5.127,17.836-8.079,23.826c0.423,15.814,1.067,24.808,1.934,26.981c17.385,32.019,39.175,49.834,65.371,53.446
			c103.902,3.001,164.814-6.166,182.736-27.499l9.035-9.995c-2.001-3.727-5.486-15.075-10.457-34.047l-29.768-55.973
			c-1.873-5.983-0.083-15.951,5.369-29.902c1.922-4.196,6.489-8.108,13.702-11.737c32.606-8.814,58.365-19.222,77.276-31.223
			c29.209-22.644,47.036-39.563,53.482-50.757c-10.097,1.302-31.472,13.238-64.126,35.813
			c-14.671,4.754-44.433,12.175-89.284,22.264c-15.55,2.886-33.926-10.352-55.129-39.709
			c-12.749-27.137-19.815-45.384-21.198-54.742c-4.048-28.008-4.576-53.797-1.582-77.369c-1.207-0.893-2.697-6.108-4.472-15.645
			c-1.107-4.551-3.832-23.396-8.175-56.537l1.184-24.568l-3.662-13.427c-1.163-4.365-5.806-12.353-13.927-23.962l-0.766-6.018
			c-1.809-16.578,0.254-40.729,6.188-72.45c1.298-7.131,2.608-11.737,3.932-13.818C575.489,415.748,579.953,406.005,583.7,399.489"
			/>
	</g>
	<g>
		<path fill="#42001B" d="M827.628-69.848L655.282-54.627C583.773-38.488,512.697-19.504,442.054,2.324
			c-4.735,0.823-26.311,16.589-64.723,47.298c-3.003,1.097-5.869,6.804-8.598,17.121l-1.31,17.254
			c20.689,55.18,36.614,90.271,47.774,105.273c8.812,24.505,14.047,41.389,15.706,50.652l1.186,67.22l-27.604,148.345l-5.956,61.886
			l0.938,43.984l13.899,66.788c2.028,8.979,3.014,18.728,2.954,29.247c0.58,5.034,2.114,11.633,4.602,19.795
			c7.461,24.487,23.501,63.048,48.121,115.682c3.12-7.958,4.741-14.487,4.863-19.588c-4.18-32.56-3.963-68.806,0.648-108.741
			c-25.505-37.233-34.874-73.81-28.106-109.728c1.799-4.591,3.238-6.792,4.318-6.604c9.849-2.441,16.351-3.686,19.506-3.732
			c11.074-0.626,18.298,1.417,21.672,6.129l56.942-57.696c-6.051-31.5,11.809-67.562,53.577-108.184
			c19.884-16.859,53.841-33.381,101.87-49.565c42.093-9.6,73.287-12.787,93.582-9.562c13.661-1.359,32.657,15.666,56.99,51.073
			c7.02,23.621,9.569,43.813,7.647,60.575c8.35-0.982,13.729-4.174,16.136-9.575c2.624-18.277-0.266-40.153-8.671-65.631
			c-0.992-13.288-0.305-30.247,2.063-50.876l-14.489-113.497c3.155-6.899,2.888-19.598-0.803-38.096
			c4.183-29.947,9.943-57.089,17.28-81.427c3.669-12.169,7.731-23.637,12.188-34.404c11.833-25.69,19.405-40.263,22.718-43.718
			c0.473,0.197,0.709-1.484,0.707-5.044c-2.925-21.834-10.285-37.091-22.082-45.769C862.619-63.753,842.628-70.106,827.628-69.848"
			/>
	</g>
	<g>
		<path fill="#42001B" d="M402.979,563.586l0.658,17.104c0.138,1.847,0.443,4.344,0.916,7.489c0,2.524,0.031,4.422,0.095,5.692
			l0.951,6.418c0.273-1.503,0.983-2.179,2.13-2.026L402.979,563.586 M405.597,600.303l-0.012,0.09
			c-0.038,3.502,0.414,8.982,1.355,16.441c0.973,4.213,2.055,9.735,3.244,16.569c2.063,6.598,3.174,10.347,3.331,11.249
			c0.336,1.889,0.612,4.278,0.829,7.168c0.477,3.053,0.916,5.312,1.319,6.777c0.286,1.141,0.57,2.162,0.852,3.065l0.42,1.267
			c0.559,1.569,1.106,2.664,1.646,3.283c2.094,2.085,3.35,2.49,3.766,1.216c0.098-1.066-0.012-2.36-0.329-3.882
			c-0.342-1.318-1.029-3.277-2.063-5.877l-1.29-5.568c-1.334-3.698-2.046-5.802-2.137-6.311c-0.257-2.622-0.638-5.455-1.142-8.498
			c-0.309-2.15-1.139-6.454-2.493-12.911c-2.026-6.488-3.117-10.16-3.273-11.015c-1.565-3.624-2.621-6.35-3.167-8.177
			c-0.182-0.608-0.307-1.118-0.376-1.527L405.597,600.303"/>
	</g>
	<g>
		<path fill="#42001B" d="M407.091,566.351l-0.7,0.172c-0.451,0.229-0.87,0.688-1.258,1.378c-0.388,0.688-0.744,1.606-1.068,2.754
			l-0.463,1.894c-0.444,2.069-1.043,6.427-1.797,13.073c-0.309,3.397-0.31,6.487-0.003,9.27c0.365,2.758,0.922,5.257,1.668,7.497
			c1.244,4.602,3.909,11.715,7.997,21.339c1.06,2.565,2.654,5.481,4.783,8.748c2.782,4.411,6.49,6.377,11.125,5.899l-20.219-72.022
			L407.091,566.351"/>
	</g>
	<g>
		<path fill="#42001B" d="M775.072-87.294l-8.007,0.348c-22.062,1.113-49.8,3.708-83.215,7.785l-38.596-2.189l-63.563,7.728
			c-2.577,1.315-13.125,3.371-31.646,6.167l-93.794,11.048c-15.396,2.18-29.274,5.795-41.638,10.848
			c-19.581,8.113-33.677,18.388-42.289,30.824c-4.104,14.632-6.807,39.975-8.111,76.027c0.131,15.901,3.127,23.845,8.989,23.83
			c1.102-0.077,2.305-0.465,3.609-1.162L912.209-22.887c-3.207-15.18-13.836-27.39-31.887-36.628l-7.116-3.325
			c-23.046-5.764-36.159-9.4-39.34-10.907l-30.233-4.946C796.179-83.028,786.658-85.895,775.072-87.294"/>
	</g>
	<g>
		<path d="M623.2-77.633l-0.456,0.009c-0.918,0.038-1.868,0.188-2.851,0.452l-26.909,7.618l38.878-3.539
			c-1.091-1.345-2.267-2.391-3.528-3.138c-0.631-0.374-1.283-0.673-1.957-0.897l-1.026-0.28l-1.059-0.168L623.2-77.633
			 M592.984-69.555l-89.599,8.156c-6.729,2.413-15.193,4.397-25.392,5.953c-2.219,0.276-4.381,0.47-6.485,0.581
			c-6.136-0.604-12.519-0.679-19.146-0.227c-5.857,0.385-12.052,1.156-18.581,2.313c-13.297,4.309-27.458,9.912-42.484,16.809
			c-27.4,19.204-38.186,34.643-32.358,46.316c1.96,4.36,6.399,8.952,13.317,13.776c24.964,11.168,43.62,22.893,55.968,35.174
			l57.582,22.184c7.788,2.085,14.101,3.035,18.938,2.849c11.206-1.335,38.387-2.132,81.544-2.39
			c38.34-3.814,61.77-6.976,70.292-9.485c7.48-1.187,60.041-13.958,157.681-38.312c33.185-11.247,55.969-21.897,68.354-31.949
			c-0.504-1.509-2.264-1.9-5.277-1.171L774.19,26.087l-58.728,8.753l-29.464,1.067c-3.822-1.862-25.857-2.33-66.105-1.404
			c-18.002-1.988-32.788-3.313-44.358-3.976c-12.106-0.604-19.923-0.663-23.448-0.177l-4.979-0.358
			c-13.095-1.118-20.419-2.054-21.975-2.807c-19.829-6.841-30.459-12.843-31.888-18.006c-1.234-14.899,1.378-27.06,7.835-36.481
			c7.697-11.227,16.351-18.725,25.959-22.493c3.765-1.817,7.62-3.286,11.564-4.406L592.984-69.555"/>
	</g>
	<g>
		<path d="M856.132,11.658L480.05,58.566c-2.557-0.293-6.522-0.374-11.896-0.242c-0.516,0.841-0.117,1.308,1.193,1.401
			c0.456,0.033,1.037,0.02,1.742-0.042l8.962-1.117c6.395,1.611,10.444,2.505,12.149,2.685c17.894,1.182,36.35,2.956,55.37,5.324
			c2.734,0.228,5.604,0.306,8.605,0.235c1.814,0,4.351-0.233,7.608-0.701c12.273-2.501,19.504-3.891,21.69-4.169l28.815-1.195
			l31.735-4.737l28.417-2.444c21.229-4.157,41.574-7.555,61.031-10.195l100.73-22.308C848.168,17.906,854.811,14.771,856.132,11.658
			"/>
	</g>
	<g>
		<path d="M380.309-2.623l-5.098,7.721c-12.764,20.071-18.688,44.292-17.774,72.663c2.764,10.932,26.447,56.203,71.05,135.814
			l7.498,33.68l-11.392,142.148c-6.892,39.057-15.456,76.71-25.694,112.959c-2.089,21.461-1.815,42.95,0.821,64.467
			c7.881,57.758,14.506,94.458,19.874,110.101c4.604,13.934,17.118,40.975,37.544,81.122c5.944,11.259,10.694,16.56,14.25,15.903
			c-6.878-5.932-10.905-10.762-12.081-14.491l-35.672-102.469c-6.558-57.261-8.847-89.383-6.867-96.365
			c15.834-41.821,30.138-66.479,42.913-73.975c18.876-6.76,49.558-6.342,92.043,1.254l-79.312-24.349
			c-14.873-7.34-24.982-17.263-30.33-29.77c-2.717-8.638-2.558-17.705,0.479-27.2c2.669-10.306,9.959-28.013,21.872-53.12
			c3.32-13.594,4.96-22.342,4.918-26.243l-28.488-117.883c-4.614-38.832-4.974-61.621-1.076-68.366
			c1.754-9.441,11.813-17.404,30.178-23.89c51.968-4.991,98.541-12.308,139.719-21.951c32.34-9.075,70.26-23.523,113.761-43.344
			c17.022-3.613,44.371-7.932,82.048-12.956L380.309-2.623"/>
	</g>
	<g>
		<path d="M541.165,482.009l-105.683,7.847c-5.56,5.727-10.38,12.864-14.461,21.41c-2.04,4.272-3.896,8.898-5.566,13.876
			l-2.368,7.73c-1.486,5.33-2.787,11.013-3.903,17.048c-1.168,6.817-1.73,12.356-1.689,16.616l0.944,24.727
			c-0.854,30.268-1.021,47.084-0.497,50.447c0.182,0.684,0.304,0.841,0.368,0.47c0.153,2.872,1.44,10.86,3.863,23.964
			c1.065,5.168,2.27,10.23,3.61,15.188c2.684,9.916,5.918,19.412,9.704,28.488c12.991,27.647,21.676,44.741,26.054,51.28
			c6.254,10.577,11.952,18.676,17.096,24.297c0.56-0.333,0.901-1.354,1.024-3.065l0.028-40.906l-3.431-29.343
			c0.014-15.013,0.953-26.232,2.818-33.658c-0.615-8.624-0.604-14.704,0.032-18.24c0.113-4.933-5.622-16.894-17.204-35.881
			c-2.343-6.927-3.937-12.534-4.78-16.822c-2.944-8.721-2.173-23.464,2.314-44.23c1.645-7.548,4.522-14.093,8.636-19.634
			c4.383-4.938,12.9-12.631,25.551-23.08l37.827-22.06c2.074-1.368,10.024-2.433,23.85-3.193
			C546.827,494.293,545.448,489.867,541.165,482.009"/>
	</g>
	<g>
		<path d="M881.104,399.737l-1.931,2.458c-0.158-0.637-0.259-0.916-0.303-0.838c0.065,1.068-0.012,2.044-0.231,2.926
			c-0.112,0.454-0.262,0.896-0.449,1.328l-0.311,0.641c-0.225,0.421-0.488,0.831-0.789,1.23c-0.497,0.729-1.205,1.594-2.124,2.596
			c-3.799,3.631-6.042,5.879-6.73,6.746c-0.924,1.133-1.583,2.042-1.976,2.726c-0.422,0.607-0.768,1.491-1.038,2.651
			c-0.057,0.987,0.048,1.872,0.315,2.656c0.805,1.755,1.597,4.03,2.376,6.825c0.294,0.589,0.587,0.939,0.88,1.054
			c0.671,0.368,1.654,0.117,2.951-0.753c0.413-0.299,0.849-0.672,1.306-1.12c1.183-1.252,1.919-2.092,2.208-2.521l0.688-0.708
			c0.908-1.096,1.783-2.796,2.625-5.101c0.421-1.152,0.833-2.455,1.237-3.91c0.336-1.087,0.801-3.06,1.396-5.918
			c0.521-2.771,0.795-4.879,0.819-6.325c-0.003-0.549-0.04-1.088-0.113-1.618C881.577,403.238,881.309,401.563,881.104,399.737"/>
	</g>
	<g>
		<path d="M530.755,488.771l-0.116,0.002c-0.341,0.012-0.925,0.071-1.751,0.179c-0.104-0.01-0.388-0.03-0.851-0.06
			c-0.364-0.021-0.71-0.036-1.037-0.043c-0.457-0.013-0.934-0.006-1.428,0.021l-0.414-0.075l5.794,1.702
			c0.226-0.208,0.401-0.397,0.528-0.568l0.152-0.242l0.079-0.216l0.005-0.188l-0.069-0.159l-0.144-0.133l-0.218-0.104l-0.292-0.076
			c0.003-0.004-0.009-0.012-0.036-0.021C530.92,488.777,530.852,488.771,530.755,488.771 M477.215,474.133l-0.423,0.004
			c-1.149,0.024-2.478,0.146-3.984,0.365c-2.676,0.729-6.024,1.934-10.048,3.613c-2.462,1.194-3.806,1.91-4.031,2.146
			c-2.239,1.524-3.863,2.894-4.871,4.106c-0.648,0.795-0.992,1.5-1.031,2.116c0.853,2.547,1.507,5.127,1.962,7.74
			c0.177,0.371,0.505,0.619,0.984,0.744c0.724,0.104,1.825,0.149,3.305,0.135c1.706-0.027,3.793-0.163,6.259-0.407l20.038-5.696
			c0.456-0.14,1.252-0.322,2.387-0.545l0.808-0.144c4.142-0.326,6.738-0.551,7.791-0.675c1.656-0.171,2.976-0.334,3.958-0.49
			l4.671-0.154l2.591-0.404l0.407,0.004c0.692,0.062,2.086,0.417,4.182,1.066c0.306,0.041,1.324,0.047,3.057,0.016
			c1.54,0.395,2.48,0.582,2.822,0.561c0.398,0.025,1.574-0.005,3.527-0.09l3.584,0.651l-42.92-12.613
			c-0.002-0.531-0.623-1.079-1.863-1.645C479.569,474.268,478.516,474.133,477.215,474.133"/>
	</g>
	<g>
		<path d="M500.779,78.601l-12.911,3.72c-32.881,10.063-49.354,16.186-49.422,18.369c-9.143,7.529-14.198,13.412-15.165,17.646
			c-2.506,4.891-4.127,12.145-4.862,21.762c-0.243,3.477,0.157,7.487,1.202,12.03l30.305,92.665
			c3.386,17.968,5.604,36.092,6.654,54.371c0.371,7.27-0.536,21.517-2.721,42.74c-10.379,31.649-16.188,53.552-17.426,65.704
			c-1.245,4.31-1.428,19.627-0.548,45.955l1.053,6.219c0.87,3.939,2.076,7.465,3.618,10.575c1.543,3.111,3.421,5.808,5.635,8.09
			c8.278,6.876,16.311,9.968,24.099,9.274c2.173-0.806,3.185-2.022,3.033-3.648c-8.604-26.239-12.959-41.231-13.068-44.977
			c0.094-17.755,0.949-31.368,2.568-40.839c3.158-19.503,14.701-48.91,34.63-88.221c1.712-4.229,2.855-10.509,3.432-18.839
			c-0.08-9.255-1.016-20.067-2.808-32.437c-1.592-5.285-3.099-12.112-4.521-20.484c-5.234-13.468-7.837-21.552-7.808-24.251
			c-0.376-20.902-0.231-35.147,0.434-42.736c0.621-10.732,1.676-21.096,3.164-31.091c4.431-13.014,8.791-21.196,13.081-24.545
			c14.853-12.567,30.165-19.501,45.938-20.801L500.779,78.601"/>
	</g>
	<g>
		<path fill="#FFFFFF" d="M789.122,684.507l-4.31,3.446c-5.541,4.363-10.257,7.808-14.149,10.333
			c-4.504,2.753-6.96,4.13-7.366,4.128l-13.927,6.037c-2.948,0.865-5.61,1.737-7.987,2.617l-24.097,9.306l-0.619,0.097
			c-1.537,0.242-2.718,0.362-3.54,0.359c-3.316-0.556-6.527-0.85-9.635-0.883c-1.401-0.216-3.568-0.845-6.502-1.888
			c-0.547-0.104-2.184-0.16-4.907-0.172l-8.601-1.298c-8.761-4.398-14.188-6.884-16.282-7.458c-3.354-1.224-5.973-1.835-7.854-1.835
			c1.294,10.352,2.226,16.333,2.797,17.942c0.668,3.072,1.518,4.951,2.551,5.635c0.213,0.159,0.638,0.323,1.276,0.493
			c2.798,0.412,5.221,0.808,7.267,1.187c3.321,0.652,5.29,1.102,5.907,1.347l3.258,0.487c3.921,0.555,6.501,0.521,7.741-0.1
			l13.17,1.469c0.619-0.479,1.102-0.751,1.448-0.818c7.968-1.012,13.133-1.889,15.493-2.632c7.942-3.251,13.719-5.956,17.329-8.115
			c4.874-1.57,8.331-2.877,10.369-3.918l26.863-13.05l1.485-0.872c1.937-1.225,3.697-2.7,5.281-4.425l2.245-2.775l1.979-3.15
			c0.017,0.093,0.095,0.061,0.236-0.097C786.552,695.145,787.577,691.346,789.122,684.507"/>
	</g>
	<g>
		<path fill="#FFFFFF" d="M802.27,612.104l-0.014,0.001c-0.333,0.123-0.47,0.382-0.411,0.775l1.174,4.001
			c0.088,0.338,0.123,0.676,0.104,1.014c0.05,0.297-0.113,0.825-0.487,1.585c-0.252,0.44-0.602,0.894-1.049,1.36
			c-0.848,0.814-1.823,1.636-2.927,2.465c-0.756,0.617-2.337,1.664-4.742,3.141c-1.113,0.565-2.885,1.298-5.313,2.194
			c-1.375,0.479-2.717,0.875-4.024,1.186l6.105-0.944c0.323-0.269,0.824-0.586,1.504-0.951c0.383-0.188,0.751-0.324,1.104-0.407
			l5.411-0.719c0.662-0.137,1.07-0.232,1.226-0.289c1.077-0.355,2.189-1.147,3.338-2.378c0.886-0.938,1.288-1.394,1.205-1.368
			c0.148-0.246,0.273-0.554,0.376-0.923c0.309-1.107,0.411-2.77,0.311-4.985c-0.105-0.849-0.619-2.021-1.543-3.514
			C803.091,612.52,802.643,612.104,802.27,612.104"/>
	</g>
</g>
<g id="layer2">
	<g>
		<path fill="#CCFF00" d="M875.505,411.407l-0.095,0.016l-1.179,1.271c1.446,4.672,1.474,9.986,0.083,15.944
			c-1.035,2.374-2.852,4.216-5.451,5.523l-48.455,20.664c-4.422,0.119-15.637,2.918-33.645,8.397
			c-10.568,0.736-18.337,1.782-23.306,3.137l-25.386,8.422l-58.554,6.168c-11.478,1.846-19.918,3.494-25.32,4.945l-61.987,7.192
			c-11.224-1.542-30.613-2.219-58.169-2.03l-36.785-3.283c-6.311-0.146-11.308,0.043-14.993,0.566
			c-2.805,0.339-5.488,0.813-8.052,1.424c-12.208,5.13-20.523,9.058-24.945,11.783l-3.125,2.325l-6.908,9.53
			c-6.424,10.695-7.184,17.133-2.28,19.313c3.479,1.4,8.757,2.799,15.833,4.194c10.878,8.021,20.649,13.415,29.314,16.182
			c41.761,7.877,67.77,14.415,78.028,19.613c13.345,1.867,21.983,2.712,25.916,2.533l10.069,2.571
			c2.204,0.091,6.456-0.192,12.756-0.851c7.468,2.193,12.972,3.436,16.511,3.727l111.596,0.309l35.896-5.01
			c29.662-5.355,52.606-11.81,68.834-19.362c34.673-22.081,55.048-36.972,61.125-44.674c1.361-3.448,2.244-8.553,2.648-15.312
			c-0.224-1.433-0.764-2.486-1.621-3.161c-4.466-0.076-6.914-0.895-7.345-2.456l-1.238-22.802
			c11.82-5.257,15.328-16.211,10.525-32.864c-1.25-2.849-2.116-4.24-2.599-4.175c-0.38-0.564-1.543-0.795-3.491-0.691
			l-23.877-18.051C875.875,411.831,875.765,411.487,875.505,411.407"/>
	</g>
	<g>
		<path fill="#000792" d="M892.903,467.292l-22.597,17.771l-16.113,9.957l-9.288,3.921c-11.562,3.246-18.261,4.715-20.098,4.406
			c-0.77,0.113-1.703,0.68-2.803,1.699l-129.757,17.172c1.042-0.916-1.408-0.995-7.351-0.235l-4.466,0.651
			c-2.993,0.947-6.231,1.745-9.715,2.391c-4.461,0.741-7.211,1.141-8.25,1.198c-1.926,0.21-3.912,0.383-5.96,0.517
			c-15.011-1.3-24.021-1.889-27.031-1.766l-14.393,1.381c-9.739,1.314-18.425,3.478-26.058,6.488
			c-3.063,2.288-5.496,6.542-7.301,12.764c-1.249,5.698-1.172,9.171,0.232,10.418c0.016,0.694,1.42,1.94,4.214,3.739
			c10.482,4.071,17.822,6.505,22.021,7.299c6.654,0.509,13.621,0.675,20.899,0.5c2.383,0.709,9.69,1.326,21.922,1.85
			c4.197-0.337,12.269-1.469,24.214-3.396c1.739,0.735,10.02-0.029,24.84-2.292c3.222,0.256,7.019,0.188,11.392-0.206
			c8.286-1.001,14.389-1.889,18.307-2.666c2.302,0.083,7.179,0.011,14.632-0.219c9.518-1.813,16.054-2.434,19.606-1.861l37.52-7.065
			c27.036-7.785,40.231-11.814,39.585-12.087c12.597-5.122,20.675-9.427,24.234-12.913c6.399-6.027,11.831-11.693,16.294-16.998
			c3.442-3.104,7.958-10.247,13.548-21.431C898.303,479.838,897.543,472.843,892.903,467.292"/>
	</g>
	<g>
		<path fill="#FFFFFF" d="M881.466,422.563c0,0.232-0.015,0.481-0.044,0.747c-0.062,0.479-0.121,0.838-0.179,1.081
			c-0.207,0.848-0.337,1.352-0.392,1.512l-0.544,1.61l0.019,0.179c0.109,0.417,0.209,0.741,0.3,0.971
			c0.183,0.497,0.568,1.426,1.158,2.785c0.031,0.123,0.042,0.312,0.031,0.566c-0.031,0.493-0.076,0.916-0.134,1.27
			c0.045,0.223,0.113,0.399,0.203,0.531l0.041,0.064c0.238-0.314,0.438-0.617,0.602-0.909c0.124-0.214,0.266-0.539,0.425-0.975
			l-1.478-9.433H881.466 M881.922,433.885l-0.055,0.07c-5.691,5.529-8.709,8.787-9.052,9.773c-0.26,0.538-0.253,0.903,0.019,1.097
			c1.631-0.071,2.904-0.063,3.82,0.024c0.655,0.054,0.907,0.243,0.756,0.567c-2.363,1.48-4.714,3.256-7.054,5.325
			c-1.802,1.721-3.049,3.122-3.739,4.203c-0.027,0.642,0.385,0.934,1.238,0.877l6.162-1.372c0.958-0.107,1.328,0.085,1.113,0.576
			c0.001,0.083-0.435,0.463-1.307,1.14c-5.741,3.875-9.313,6.414-10.713,7.618c-2.248,2.024-3.334,3.551-3.255,4.579
			c0.118,0.357,0.337,0.594,0.655,0.707c0.626,0.115,1.181,0.067,1.662-0.144c10.124-4.849,18.284-8.475,24.481-10.878
			c0.193-0.254,0.196-0.47,0.011-0.648c-0.505-0.398-1.147-0.746-1.93-1.042c-0.754-0.374-2.94-0.694-6.561-0.962
			c-0.611-0.217-0.853-0.549-0.722-0.996c0.18-0.636,0.713-1.305,1.601-2.008c1.277-1.019,3.672-2.532,7.184-4.541
			c0.33-0.243,0.605-0.488,0.828-0.736c0.343-0.307,0.21-0.487-0.397-0.542c-1.535-0.022-3.358,0.157-5.468,0.539
			c2.6-1.725,4.789-3.496,6.57-5.316c0.891-0.91,1.679-1.832,2.364-2.766l0.952-1.409c0.583-0.946,1.064-1.903,1.443-2.873
			c-0.013-0.251-0.254-0.413-0.725-0.485l-7.505,0.712C882.934,434.813,882.141,434.449,881.922,433.885"/>
	</g>
	<g>
		<path fill="#FFFFFF" d="M874.143,491.073l-0.045,0.034c-0.122,0.091-0.244,0.187-0.367,0.287l0.123,0.415
			c0.069-0.158,0.137-0.319,0.201-0.485c0.055-0.139,0.086-0.222,0.097-0.251H874.143 M882.207,482.565l-0.478,0.013
			c-0.955,0.054-1.923,0.269-2.902,0.645c-0.988,0.336-1.665,0.744-2.03,1.223c-0.513,0.579-1.015,1.444-1.507,2.595
			c-0.128,0.328-0.213,0.563-0.254,0.706c-0.29,1.479-0.584,2.586-0.882,3.318c0.844-0.573,1.433-0.898,1.766-0.973
			c0.454-0.16,0.895-0.239,1.322-0.239c0.469,0,0.922,0.096,1.359,0.287c0.218,0.097,0.433,0.216,0.643,0.36
			c0.52,0.401,0.826,0.671,0.921,0.81l0.258,0.595l0.134,0.68l0.01,0.765l-0.116,0.848c-0.118,0.595-0.32,1.244-0.605,1.951
			c-0.284,0.706-0.652,1.469-1.104,2.288l-0.738,1.271c-0.031,0.15,0.056,0.235,0.26,0.255c0.103,0.012,0.313-0.042,0.633-0.161
			c0.384-0.211,0.666-0.416,0.847-0.617l2.242-2.936l0.598-0.883c0.589-0.963,1.095-1.941,1.517-2.936
			c0.684-1.826,1.195-3.36,1.536-4.604c0.28-1.386,0.208-2.338-0.215-2.856c-0.402-0.573-0.999-1.259-1.79-2.055
			C883.148,482.604,882.675,482.488,882.207,482.565"/>
	</g>
	<g>
		<path fill="#FFFFFF" d="M878.965,484.334l-3.049,1.879c-0.744,0.573-1.922,1.658-3.534,3.255
			c-1.337,0.899-2.146,1.479-2.424,1.738c-1.981,2.005-3.645,3.865-4.988,5.579c-0.256,0.418-0.365,0.724-0.327,0.918
			c0.024,0.335,0.221,0.478,0.589,0.427c1.518-0.689,3.04-1.492,4.567-2.407c1.914-1.186,3.079-1.941,3.495-2.271
			c0.651-0.478,1.734-1.392,3.249-2.741c1.539-1.134,2.352-1.756,2.439-1.865L878.965,484.334"/>
	</g>
	<g>
		<path fill="#ADD800" d="M488.753,486.825l-0.825,0.007c-2.278,0.041-5.16,0.242-8.646,0.604
			c-6.035,0.944-10.845,1.993-14.429,3.148l-19.475,15.241c-13.338,12.707-15.751,21.098-7.241,25.171
			c7.884,1.778,16.817,5.863,26.8,12.255c1.374,0.657,9.792,1.852,25.256,3.585c0.867,0.128,3.524,0.769,7.969,1.922l33.629,14.55
			l55.319,15.515l54.411,3.369l37.104-0.154c8.074,0.767,14.401,1.112,18.983,1.037l2.794-0.063l32.887-3.176
			c23.569-5.262,45.667-8.746,66.293-10.451c14.54-3.281,26.673-6.905,36.4-10.874c10.4-4.061,28.942-15.841,55.627-35.342
			c10.434-13.06,14.294-21.919,11.582-26.576c-16.638,17.773-26.19,27.341-28.655,28.703
			c-33.658,20.746-52.975,31.733-57.948,32.961c-1.699,0.407-2.48,0.509-2.344,0.306c-13.477,3.912-22.45,6.341-26.921,7.286
			c-6.419,1.517-12.229,2.692-17.43,3.527c-56.408,7.386-89.696,10.934-99.863,10.645c-1.826,0.251-12.579-0.946-32.259-3.593
			c-9.671-1.156-20.092-3.083-31.264-5.781c-3.516-0.518-9.476-1.108-17.88-1.773c-9.134-1.642-14.421-3.078-15.861-4.309
			c-3.335-1.518-5.939-5.293-7.814-11.326l-9.029-48.036c-0.802-7.659,1.698-11.86,7.499-12.604
			c-5.523,0.63-10.112,0.778-13.766,0.445l-15.74-2.669C532.409,490.662,517.354,489.479,488.753,486.825"/>
	</g>
	<g>
		<path fill="#ADD800" d="M511.67,530.262l-36.976,11.165c-1.101,0.537-1.286,1.068-0.559,1.595
			c3.569,2.337,7.064,5.223,10.483,8.658c1.513,1.207,4.394,2.811,8.641,4.812c0.901,0.26,1.583,0.408,2.048,0.446
			c4.96,0.081,8.329,0.285,10.106,0.611l10.226,2.863c1.337,0.288,3.612,0.629,6.828,1.023l20.779,4.338
			c1.579,0.37,4.931,1.59,10.056,3.659c2.891,0.493,4.578,0.66,5.063,0.501c2.125-1.19,2.638-2.668,1.539-4.434
			c-4.604-5.467-9.445-10.584-14.523-15.35c-7.042-5.585-12.713-9.676-17.013-12.274l-11.669-6.225
			C515.873,531.176,514.196,530.713,511.67,530.262"/>
	</g>
	<g>
		<path fill="#3DFFA2" d="M912.126,894.936l-13.733,0.059c-37.047,0.316-77.485,1.896-121.314,4.74
			c-18.658,28.103-27.081,45.914-25.269,53.433l-22.173,23.996c-22.144,12.972-36.881,19.767-44.213,20.384
			c-55.988,7.347-106.05,5.244-150.186-6.307c-39.314-8.294-67.821-25.207-85.521-50.739
			c-110.898,29.811-171.54,48.146-181.926,55.005c-30.672,12.7-51.66,25.604-62.963,38.714l-6.662,9.871
			c-6.87,85.757-8.972,133.398-6.305,142.927c0.902,2.009,1.631,2.383,2.189,1.122c14.233,51.932,26.73,93.925,37.492,125.979
			c10.761,32.056,19.786,54.172,27.075,66.352c30.836,42.396,63.593,70.004,98.271,82.822
			c33.395,14.406,78.133,20.543,134.213,18.411c61.155,0,120.043-6.072,176.664-18.218c46.743-11.302,74.487-18.893,83.231-22.772
			l57.83-21.654c39.746-7.896,72.473-15.758,98.182-23.587l37.696-13.248l9.504-5.058c13.989-8.928,29.117-24.155,45.384-45.683
			c6.559-9.07,11.282-16.938,14.174-23.605c-0.113-8.761,10.655-39.249,32.304-91.466c14.093-32.334,32.567-71.023,55.425-116.067
			c0.07-14.741,2.532-25.816,7.387-33.225c-19.578-51.442-55.142-102.657-106.69-153.646
			c-18.151-12.794-28.499-18.558-31.042-17.289L912.126,894.936"/>
	</g>
	<g>
		<path fill="#3DFFA2" d="M216.496,1029.125l-0.909,0.073c-10.125,2.076-25.747,11.521-46.864,28.332
			c-17.832,21.993-31.422,41.566-40.771,58.721l-41.492,149.25c15.225,30.327,26.917,50.101,35.077,59.32
			c10.308,13.615,21.377,25.468,33.21,35.557l0.211,1.614l12.34,9.146c84.178,49.187,133.831,76.516,148.959,81.986
			c30.313,9.868,62.883,16.711,97.709,20.527c7.194,0.479,15.452,0.485,24.773,0.02c56.146-3.229,87.282-5.162,93.407-5.799
			c64.651-10.401,153.084-35.19,265.298-74.366c11.941-4.09,38.248-18.492,78.921-43.206l-658.445-318.517
			C218.482,1029.825,218.007,1028.938,216.496,1029.125"/>
	</g>
</g>
<g id="layer3">
	<g>
		<path d="M903.258,490.293l0.417,1.52l0.301,1.534l0.183,1.547l0.065,1.56l-0.052,1.574l-0.169,1.587l-0.286,1.602l-0.403,1.614
			l-0.521,1.628l1.405-2.51l1.067-2.276l0.729-2.041l0.391-1.809l0.053-1.573l-0.286-1.34l-0.623-1.106l-0.963-0.872
			L903.258,490.293 M495.627,556.401l-1.025,0.012c-2.661,0.063-4.719,0.377-6.175,0.943l1.704,0.681l6.656-0.076
			c1.346,0.293,2.936,0.559,4.77,0.796c0.917,0.118,1.896,0.23,2.935,0.335l1.604,0.151c1.101,0.098,2.261,0.188,3.483,0.272
			c-2.085-0.729-3.472-1.242-4.159-1.537c-0.989-0.4-1.882-0.792-2.679-1.176c-1.196-0.119-2.329-0.211-3.398-0.277
			c-0.535-0.033-1.054-0.06-1.558-0.079C496.555,556.408,495.835,556.394,495.627,556.401 M509.579,559.516l2.188,0.723
			c6.082,1.95,14.148,4.066,24.199,6.348l-19.394-6.696C514.577,559.814,512.246,559.689,509.579,559.516 M902.771,504.494
			l-1.104,1.768c-3.136,4.847-7.811,10.758-14.023,17.733l-17.164,8.998c-7.742,6.513-13.899,11.026-18.472,13.543
			c-5.657,3.451-11.899,6.773-18.728,9.969l-42.013,14.852c13.988-3.346,24.01-5.981,30.065-7.909l22.782-11.829
			c2.463-1.218,9.467-5.21,21.013-11.976c11.321-6.962,18.038-11.207,20.149-12.735l2.925-2.603
			C895.68,517.4,900.535,510.797,902.771,504.494 M535.976,566.59l23.946,8.269c4.712,1.09,11.035,2.328,18.97,3.715
			c10.373,0.621,20.269,1.802,29.688,3.544l20.521,0.475c3.443-0.306,7.467-0.49,12.071-0.555
			c5.043-0.108,11.547-0.187,19.511-0.232c2.979,0.405,8.053,0.675,15.223,0.811c8.476,0.148,18.966,0.132,31.471-0.048
			l71.677-8.171c7.632-1.719,11.697-2.729,12.197-3.034l-5.883,1.323c-1.622,0.207-4.577,0.496-8.865,0.869
			c-12.863,1.117-37.724,2.981-74.58,5.593c-13.084,0.557-26.685,0.722-40.801,0.494c-2.841-0.036-7.256-0.191-13.244-0.466
			c-12.296-0.826-21.497-1.329-27.605-1.508l-21.355-2.752c-12.2-0.59-22.444-1.235-30.731-1.935
			C565.039,572.718,554.303,570.588,535.976,566.59"/>
	</g>
	<g>
		<path d="M873.059,411.461l7.743,5.21l6.466,5.146l5.19,5.082l3.913,5.017l2.637,4.953l1.36,4.889l0.084,4.825l-1.193,4.76
			l-2.47,4.696c1.986-2.373,3.682-4.649,5.087-6.829l1.891-3.197l1.455-3.053l1.02-2.908l0.585-2.764l0.148-2.619l-0.286-2.475
			l-0.722-2.33c-2.69-2.324-5.325-4.436-7.902-6.333l-3.825-2.687c-2.521-1.684-4.986-3.153-7.396-4.409
			C882.029,413.922,877.435,412.264,873.059,411.461 M896.745,456.091l-0.492,0.582c-2.382,2.903-6.15,5.467-11.307,7.69
			c-21.765,6.533-45.19,15.241-70.278,26.124l-35.869,10.774c-5.409,1.252-12.573,2.416-21.491,3.492
			c-7.873-0.043-15.442,0.112-22.708,0.466l-28.867,2.568c-11.395,0.801-20.085,1.132-26.069,0.993l-16.959,1.579l4.271,0.468
			c4.977-0.144,17.109-0.714,36.399-1.711c22.17-1.245,40.147-2.7,53.934-4.363c6.124,0.018,11.705,0.079,16.744,0.184l3.981-0.216
			l21.209-1.727c1.571-0.21,3.135-0.49,4.69-0.842c1.172-0.224,3.106-0.773,5.805-1.649c5.833-2.937,11.451-5.379,16.853-7.326
			l30.588-11.124c5.087-2.073,9.727-4.17,13.92-6.288C883.678,469.41,892.228,462.852,896.745,456.091 M484.861,490.235
			l-0.245,0.002c0.413-0.125-2.007,0.122-7.26,0.74c-3.404,0.504-6.63,1.231-9.679,2.182c-6.098,1.901-11.484,4.696-16.162,8.384
			c-2.338,1.844-4.499,3.911-6.482,6.201l-14.726,19.286c-0.323,3.059,1.438,4.79,5.281,5.192c-0.899-0.567-1.162-1.94-0.786-4.118
			c0.941-1.979,3.686-5.853,8.234-11.62c5.432-6.197,10.747-9.297,15.946-9.297c12.229-1.192,26.132-0.609,41.708,1.749
			l70.685-0.223c5.152,0.196,10.562,0.648,16.226,1.355c9.951,1.383,17.57,2.694,22.858,3.934c0.164,0.047,1.019,0.088,2.564,0.123
			c1.938,0.039,5.519-0.007,10.741-0.14l38.938-3.626l-24.988-2.731c-10.611-0.223-27.235-1.063-49.872-2.521
			c-12.769-0.906-25.111-2.001-37.029-3.283c-18.045-2.28-33.633-5.127-46.764-8.54c-4.361,0.016-7.183-0.041-8.465-0.17
			l-8.432-2.698C486.249,490.283,485.484,490.223,484.861,490.235 M435.591,532.224l0.091,0.078
			c0.188,0.154,0.398,0.292,0.634,0.411c0.211,0.106,0.491,0.225,0.84,0.356l1.277-0.498c-0.465-0.034-0.909-0.077-1.335-0.127
			c-0.212-0.024-0.42-0.052-0.623-0.08l-0.301-0.044C435.978,532.29,435.783,532.258,435.591,532.224 M437.153,533.07l-3.746,1.46
			c1.297,1.007,2.705,1.789,4.224,2.348l1.159,0.377l1.201,0.294l1.242,0.209l1.284,0.126l1.325,0.042l0.959-0.021
			c0.646-0.028,1.308-0.084,1.981-0.167l1.021-0.146c0.688-0.111,1.389-0.25,2.104-0.417l1.083-0.271
			c0.729-0.194,1.473-0.417,2.229-0.667c0.179-0.186,0.235-0.345,0.169-0.476c-0.135-0.151-0.253-0.234-0.354-0.249
			c-0.124-0.045-0.279-0.083-0.465-0.114c-3.354-0.239-6.232-0.526-8.636-0.859c-1.201-0.167-2.283-0.345-3.246-0.535l-1.355-0.294
			C438.49,533.509,437.764,533.295,437.153,533.07"/>
	</g>
	<g>
		<path d="M900.028,444.586c0.498-1.061,0.826-1.272,0.982-0.638l2.402,8.921c1.027,5.148,0.543,8.53-1.701,9.712
			c-9.422,4.963-22.754,13.99-39.992,27.231c-1.576,1.21-7.013,3.371-16.102,6.768c-7.823,2.924-17.946,5.539-30.489,6.558
			c-26.541,2.156-78.367,7.537-155.381,17.45l-42.813,3.394c-26.321,3.619-39.133,12.371-38.436,26.258
			c4.301,5.098,9.758,9.2,16.722,11.202c23.986,6.896,41.437,9.34,52.059,8.949c9.123-0.337,17.034-0.49,23.683-1.299
			c17.539-2.134,30.373-4.513,38.721-5.772c23.889-3.606,35.657-4.505,60.792-6.675c16.446-1.419,25.772-3.559,51.438-12.184
			c9.307-3.127,30.127-15.397,47.623-30.405l18.334-15.728c6.125-2.999,11.832-6.758,17.123-11.276
			c1.044,2.208,0.454,5.074-1.769,8.6c-15.916,10.877-18.951,15.042-38.474,31.837c-7.49,6.443-12.236,9.509-22.208,13.438
			c-24.724,9.739-26.332,13.084-65.197,19.892l-87.97,5.201l-74.168,0.784c-20.783-0.979-31.55-8.122-32.3-21.43
			c4.842-8.555,15.938-13.611,33.214-15.808c4.395-0.558,8.109-1.382,11.21-1.132c12.366,0.997,25.09,1.497,38.235,0.794
			l31.32-3.124c12.529-1.229,23.512-4.516,33.704-5.584c16.147-1.693,37.722-2.636,64.43-7.353
			c19.755-3.488,31.671-6.472,36.1-7.841c12.409-3.836,22.348-7.319,29.54-11.381l37.881-26.453
			c7.695-4.006,8.996-10.073,3.902-18.203L900.028,444.586z"/>
	</g>
	<g>
		<path d="M895.317,462.353l-0.148,0.013c-0.408,0.064-0.923,0.387-1.542,0.968l2.352,7.381c-1.308,0.653-2.132,1.524-2.475,2.613
			l-0.105,0.419c-0.083,0.803-0.125,1.326-0.127,1.569c-0.057,1.2-0.057,2.708,0,4.523c-0.049,0.772-0.093,1.272-0.132,1.502
			c-0.152,0.866-0.259,1.405-0.319,1.616c-1.081,3.579-1.967,6.671-2.658,9.275c-0.235,0.855-0.357,1.533-0.363,2.034
			c-0.132,1.229,0.094,2.239,0.676,3.03c0.285,0.48,0.982,0.714,2.091,0.7c1.507-0.207,2.876-0.749,4.108-1.627
			c1.374-1.042,2.311-2.042,2.81-2.998c0.299-0.552,0.444-0.886,0.437-1.003c0.201-1.742,0.381-3.006,0.538-3.791
			c0.187-1.069,0.642-2.896,1.366-5.479c0.142-0.773,0.231-1.371,0.269-1.794c0.061-0.685,0.052-1.374-0.026-2.067
			c-0.026-0.539-0.225-1.394-0.597-2.563c-0.251-0.69-0.682-1.661-1.291-2.911c-1.422-2.832-2.231-4.382-2.429-4.647
			c-0.183-0.411-0.739-2.469-1.671-6.171C895.849,462.509,895.595,462.312,895.317,462.353"/>
	</g>
	<g>
		<path d="M722.65,617.185L722.65,617.185c-0.061,0.02-0.12,0.038-0.18,0.058c-0.104,0.034-0.179,0.059-0.224,0.073l0,0l0.227-0.072
			l0.184-0.059H722.65 M791.384,567.11l0.193,1.081c0.486,2.929,0.739,6.213,0.758,9.854l3.925,17.037
			c4.695,11.743,8.737,19.883,12.126,24.417c1.023,2.366,1.614,4.219,1.775,5.559c0.135,1.521,0.115,2.994-0.061,4.42
			c0.106,0.772-0.505,2.805-1.835,6.099c-1.28,2.569-3.182,4.949-5.704,7.141c-5.865,4.099-11.931,7.455-18.197,10.07
			c-3.539,1.131-8.187,1.729-13.945,1.794c-6.682-0.07-11.723-0.593-15.123-1.567c-1.555-0.469-4.002-1.953-7.343-4.456
			c-2.885-1.436-4.944-2.286-6.18-2.551c-3.615,0.201-13.753-1.069-30.415-3.813c-0.868-0.192-2.223-1.27-4.065-3.23
			c-0.592-0.843-0.975-1.769-1.149-2.778c-0.405-1.834,0.134-4.37,1.616-7.607c-0.08-0.115,0.491-0.878,1.711-2.286
			c1.165-1.225,2.869-2.726,5.111-4.506c2.231-1.978,4.74-3.451,7.525-4.423c-2.986,0.961-5.05,1.783-6.19,2.468
			c-4.67,2.68-8.517,5.363-11.541,8.05c-2.632,2.772-3.658,6.217-3.079,10.334c0.775,2.182,1.402,3.458,1.883,3.829
			c2.221,1.731,5.736,3.409,10.548,5.036c5.048,1.322,9.601,1.996,13.657,2.022l1.794-0.06c5.523-1.441,8.681-2.084,9.472-1.926
			c8.723,5.04,16.831,7.802,24.323,8.285c4.919,0.601,13.75-0.174,26.493-2.323c6.488-2.106,12.033-5.187,16.633-9.239
			c1.734-1.361,3.224-2.773,4.467-4.238c1.244-1.465,2.241-2.981,2.993-4.55l0.943-2.392c1.041-2.796,1.042-6.689,0.004-11.681
			c-0.92-3.465-2.531-7.813-4.835-13.043l-6.997-28.526c-0.7-2.093-1.132-3.254-1.296-3.482c-0.605-1.31-1.251-2.303-1.936-2.979
			L791.384,567.11"/>
	</g>
	<g>
		<path d="M874.777,413.806l0.434,1.659c0.9,4.452-0.24,9.131-3.422,14.036c-3.709,3.205-8.635,6.463-14.778,9.771
			c-15.61,5.324-25.112,8.944-28.503,10.862c-2.378,0.854-5.013,1.692-7.904,2.518c-8.676,2.474-19.665,4.817-32.969,7.032
			c-16.271,4.658-28.568,9.007-36.896,13.046l-16.312,2.834c2.166,0.015,3.888-0.041,5.164-0.165
			c4.765-0.729,7.764-1.28,8.999-1.656c6.671-1.573,15.245-4.226,25.725-7.958c4.233-0.148,8.915-0.613,14.044-1.396
			c9.285-1.589,16.396-3.064,21.336-4.426c7.521-2.369,16.104-5.358,25.754-8.969c17.619-6.746,31.345-12.229,41.177-16.45
			c1.104-0.704,1.932-1.593,2.484-2.667c0.621-0.306,0.83-2.333,0.627-6.081C879.191,422.539,877.539,418.542,874.777,413.806
			 M488.163,488.546l-2.33,0.09l-2.064,0.182l-1.798,0.273l-1.533,0.364l-1.267,0.456l-1,0.548l-0.735,0.639l-0.469,0.729
			l-0.203,0.822l3.076-2.142c1.746-0.572,3.433-0.961,5.061-1.167c0.542-0.068,1.078-0.117,1.607-0.146l0.789-0.026
			c1.216,0.127,2.583,0.243,4.104,0.35c1.054,0.085,3.192,0.201,6.414,0.348L488.163,488.546 M727.434,475.486l-3.398,0.623
			c-6.074,1.137-11.146,1.907-15.217,2.311l-28.386,0.575c-3.743,0.981-11.508,2.033-23.294,3.155
			c-15.535,3.047-24.594,4.739-27.177,5.077l-8.958,0.401c-2.564,0.131-4.962,0.275-7.192,0.436
			c-1.324,0.062-4.295,0.332-8.914,0.813c-1.73,0.202-3.295,0.418-4.692,0.648c-8.06,1.817-13.17,2.827-15.33,3.029
			c-0.607,0.04-0.896,0.051-0.864,0.031c-6.689-0.597-12.93-1.082-18.723-1.456c-5.834-0.378-11.3-0.654-16.398-0.827l-3.755-0.111
			c-10.572,0.129-20.642,0.153-30.21,0.071c-6.65-0.066-12.353-0.198-17.107-0.396l34.89,4.771c3.168,0.388,5.035,0.598,5.602,0.63
			c7.268,0.666,13.427,0.672,18.479,0.02c4.662,0.349,9.604,0.897,14.826,1.647c2.54,0.423,3.948,0.834,4.227,1.231
			c2.806,0.264,5.869,0.372,9.19,0.324c4.313-0.268,12.777-1.608,25.391-4.022c22.921-1.441,37.994-2.729,45.22-3.865l46.374-10.105
			c6.63-0.688,17.435-2.332,32.412-4.933L727.434,475.486"/>
	</g>
	<g>
		<path d="M752.795,325.812l-4.891,0.045c-9.539,0.183-17.622,0.909-24.25,2.183c-21.251,5.109-35.045,7.914-41.384,8.414
			l-8.959,3.247c-17.95,7.846-27.588,12.393-28.914,13.641l-54.874,38.431c-5.871,4.612-15.808,17.313-29.811,38.1
			c-7.839,14.837-11.352,29.764-10.536,44.781c8.586-38.127,22.6-64.618,42.041-79.473c18.366-13.193,30-20.987,34.901-23.383
			c15.854-7.166,35.967-16.843,60.342-29.03c12.084-5.655,28.889-9.536,50.415-11.643c10.766-1.427,32.428-1.771,64.988-1.035
			c11.765,1.52,19.112,2.939,22.044,4.261c4.066,1.224,8.311,3.368,12.73,6.433c4.96,3.688,12.422,17.435,22.386,41.24l8.71,57.91
			l-1.78-22.857c0.054,1.478-0.298,0.742-1.057-2.206c-0.532-7.635-2.237-18.01-5.115-31.124l-9.303-29.307
			c-2.038-5.305-4.38-9.186-7.026-11.641c-5.998-4.402-17.304-8.608-33.916-12.618C793.574,327.577,774.66,326.121,752.795,325.812
			 M549.172,474.675L549.172,474.675c-0.165,0.726-0.372,1.668-0.622,2.825c0.262,2.881,0.544,3.847,0.848,2.896
			c-0.051-0.869-0.093-1.729-0.128-2.579c-0.017-0.425-0.032-0.848-0.046-1.268l-0.019-0.629c-0.011-0.418-0.021-0.833-0.028-1.246
			H549.172"/>
	</g>
	<g>
		<path d="M782.818,689.486L782.818,689.486c-0.991,0.462-1.886,0.898-2.684,1.312c-1.555,1.271-3.402,2.733-5.543,4.388
			C778.496,692.572,781.238,690.673,782.818,689.486 M774.534,695.225l-1.188,0.787l-1.549,1.018
			c-9.871,4.776-15.709,7.75-17.513,8.92l-16.894,6.987c-8.661,3.179-17.87,4.9-27.627,5.163c-1.794,0-3.065-0.108-3.815-0.327
			l-23.479-6.741c-6.734-0.998-10.655-1.681-11.763-2.049c-5.988-2.474-10.702-4.639-14.141-6.495
			c-3.259-1.55-5.981-3.567-8.168-6.05c-0.121,1.67,0.586,3.202,2.122,4.595c3,2.555,5.386,4.487,7.159,5.795
			c0.126-1.153,0.314-1.676,0.564-1.566c0.799,0.598,1.195,1.024,1.189,1.279l0.882,2.215l-2.637-1.923
			c-0.074,1.331-0.058,2.805,0.049,4.42l7.866,25.109c1.102-0.11,1.945,0.274,2.531,1.156c2.108,4.983,3.71,8.387,4.804,10.211
			c-7.529-23.877-11.733-36.865-12.611-38.968c4.32,2.971,7.678,4.996,10.072,6.077c5.057,1.369,12.38,4,21.97,7.893
			c8.53,0.878,13.302,1.194,14.314,0.949c6.909-0.921,11.043-1.637,12.402-2.148c5.575-1.38,11.477-3.369,17.705-5.969
			c4.142-1.71,12.784-5.809,25.928-12.297C765.694,701.672,769.636,698.992,774.534,695.225 M672.957,747.791l0.166,0.35
			c0.449,0.916,0.942,1.679,1.48,2.289c-0.231-0.333-0.469-0.692-0.711-1.076c-0.121-0.192-0.243-0.392-0.366-0.597
			s-0.248-0.417-0.373-0.635l-0.189-0.331H672.957 M790.135,683.491l-0.08,0.006c-0.222,0.032-0.529,0.192-0.923,0.48
			c-0.167,0.646-2.265,2.479-6.293,5.499c2.192-0.981,3.529-1.425,4.013-1.33c-5.773,7.731-11.691,16.572-17.754,26.521
			l-12.165,14.719c-5.527,4.675-11.752,8.755-18.672,12.238c-14.558,6.669-25.997,11.111-34.318,13.329
			c5.297-0.528,10.378-0.979,15.244-1.352c4.697-1.697,10.518-3.059,17.462-4.084l11.137-4.266l2.467-1.107
			c4.735-2.194,8.282-4.267,10.642-6.216c3.367-3.234,5.465-5.634,6.291-7.198c0.315-3.058,7.745-17.504,22.289-43.339
			C790.422,685.279,790.642,683.979,790.135,683.491 M674.629,750.465l0.232,0.326c0.378,0.59,1.197,1.504,2.457,2.739
			c0.498,0.482,1.039,0.915,1.623,1.296c0.585,0.381,1.213,0.711,1.885,0.99s1.387,0.507,2.146,0.685l1.171,0.228l1.237,0.151
			c0.725,0.123,1.168,0.189,1.329,0.2c0.774,0.078,1.248,0.118,1.419,0.119c0.154,0.017,0.657,0.03,1.509,0.041
			c0.869,0,1.781-0.038,2.734-0.113l1.463-0.141c0.995-0.113,2.034-0.264,3.114-0.451c2.161-0.376,4.49-0.902,6.988-1.58
			c-3.063,0.315-5.622,0.618-7.675,0.908c-2.35,0.357-3.609,0.568-3.779,0.633c-0.651,0.136-1.179,0.269-1.58,0.398l-1.375-0.182
			l-1.441-0.281c-0.983-0.221-2.011-0.507-3.082-0.859s-2.187-0.771-3.346-1.255c-1.16-0.484-2.363-1.034-3.611-1.65l-1.904-0.974
			C675.722,751.488,675.217,751.079,674.629,750.465"/>
	</g>
	<g>
		<path d="M791.613,695.789l-1.481,1.107c0.182-0.121,0.348-0.233,0.498-0.337c0.347-0.244,0.536-0.38,0.567-0.408
			c0.103-0.078,0.189-0.147,0.26-0.207l0.094-0.085l0.071-0.07H791.613 M660.596,727.799L660.596,727.799
			c0.146,0.067,0.292,0.135,0.438,0.2s0.294,0.13,0.442,0.193l0.223,0.094c0.297,0.125,0.598,0.245,0.9,0.361l-1.997-0.849H660.596
			 M790.061,696.944l-0.801,0.521c-2.348,1.509-6.394,3.945-12.138,7.31c-5.319,2.568-9.858,4.969-13.615,7.198
			c-4.493,2.579-9.676,5.685-15.548,9.317c-9.57,4.522-15.115,7.034-16.638,7.537l-16.521,4.67c2.442-0.163,5.14-0.646,8.094-1.446
			c0.147,0.064,4.011-1.295,11.587-4.079l2.961-1.101l16.251-7.793l30.96-18.085L790.061,696.944 M662.659,728.673l9.836,4.181
			c3.122,1.104,6.192,1.962,9.211,2.575l2.254,0.414c1.496,0.245,2.979,0.429,4.449,0.552l2.195,0.138l2.175,0.046
			c3.471-0.027,7.662-0.406,12.576-1.137c0.455-0.056,2.324-0.339,5.607-0.851l3.832-1.092c-4.809,0.452-11.396,0.446-19.76-0.016
			c-0.94-0.077-3.089-0.46-6.445-1.151c-1.176-0.044-3.933-0.224-8.271-0.538c-3.291-0.263-6.068-0.557-8.333-0.881
			C668.17,730.369,665.062,729.623,662.659,728.673"/>
	</g>
	<g>
		<path d="M737.998,763.569l-0.372,0.261c-0.766,0.555-1.661,1.311-2.686,2.269c-0.341,0.319-0.697,0.661-1.067,1.025
			c0.299-0.18,0.599-0.378,0.9-0.595c0.604-0.434,1.215-0.941,1.832-1.523c0.309-0.291,0.619-0.602,0.931-0.93l0.47-0.507H737.998
			 M733.854,767.135l-0.191,0.112c-0.852,0.531-2.022,0.952-3.514,1.263c-1.459,0.275-3.799,0.575-7.02,0.898
			c-0.619,0.089-1.314,0.231-2.085,0.427c-0.129,0.028-0.557,0.166-1.285,0.412c-4.291,1.702-6.756,2.638-7.395,2.807
			c-0.794-0.146-1.291-0.224-1.492-0.23c-0.764-0.034-1.313-0.044-1.651-0.03c-0.953,0.04-1.626,0.19-2.019,0.45
			c-0.267,0.103-0.741,0.487-1.424,1.154l5.984-1.178c0.177-0.038,0.377-0.093,0.599-0.165c0.403,0.073,1.048,0.21,1.936,0.408
			c0.114,0.027,0.337,0.043,0.668,0.046c1.066,0.013,2.304-0.146,3.712-0.475c1.572-0.359,3.645-0.95,6.215-1.771
			c1.484-0.247,2.635-0.47,3.451-0.669c0.388-0.08,0.94-0.254,1.658-0.521c0.998-0.438,1.743-0.869,2.233-1.29L733.854,767.135"/>
	</g>
	<g>
		<path d="M877.398,529.349l0.107,0.67c0.281,1.784,0.542,3.56,0.781,5.328l-0.039-0.837l-0.055-0.794l-0.068-0.752l-0.083-0.709
			l-0.099-0.666l-0.111-0.624l-0.127-0.581l-0.142-0.539l-0.156-0.496H877.398 M537.139,686.073L537.139,686.073
			c-0.211,0.212-0.472,0.55-0.784,1.014c-0.156,0.232-0.325,0.496-0.507,0.791c-0.074,0.108-0.375,0.622-0.902,1.542
			c0.309-0.499,0.626-0.997,0.949-1.493l0.491-0.743l0.758-1.11H537.139 M534.886,689.516l-3.315,6.011
			c-7.925,16.232-8.506,34.118-1.746,53.654c16.71,24.786,30.903,44.565,42.58,59.337c5.838,7.386,11.047,13.521,15.627,18.402
			l6.398,6.385c3.95,3.631,7.271,6.01,9.964,7.137l-18.546-20.358l-15.599-18.644l-13.132-17.646l-10.668-16.647l-8.203-15.649
			l-5.737-14.65l-3.273-13.653l-0.808-12.654l1.658-11.656C531.712,695.514,533.313,692.392,534.886,689.516 M878.29,535.436
			l0.016,3.447c-0.222,9.959-2.529,26.021-6.925,48.189c-1.522,1.252-4.649,8.337-9.378,21.258
			c-2.646,6.408-11.062,31.675-25.249,75.801c-5.007,30.251-9.557,53.814-13.647,70.691c-4.913,18.17-7.724,27.065-8.431,26.688
			c-2.836,6.611-13.123,15.54-30.86,26.785c-29.371,17.981-49.459,29.018-60.265,33.11l14.64-2.723
			c-2.047,1.702-4.115,2.996-6.205,3.883l44.965-12.752c28.255-24.424,47.499-45.302,57.732-62.633
			c0.139,0.887,1.108-3.546,2.909-13.3c3-19.802,5.537-39.012,7.612-57.632l1.938-8.697c5.505-23.11,13.735-45.566,24.689-67.368
			l5.408-22.49c1.596-6.35,2.613-17.564,3.052-33.642C880.287,554.765,879.62,545.227,878.29,535.436 M731.966,842.57l-17.561,4.98
			c1.623-0.288,3.175-0.595,4.654-0.919l2.167-0.5c1.408-0.342,2.745-0.702,4.011-1.08
			C727.771,844.296,730.014,843.469,731.966,842.57 M604.396,840.445L604.396,840.445l0.989,1.007l1.322,0.959l1.655,0.909
			l1.988,0.862l2.321,0.813l2.654,0.765l2.987,0.717l3.32,0.667l3.653,0.619c-2.84-1.426-5.784-2.696-8.833-3.812
			c-1.523-0.557-3.074-1.075-4.65-1.556l-2.384-0.69l-2.423-0.632l-2.462-0.573L604.396,840.445 M723.551,841.405l-51.287,9.543
			l1.461-0.03l-3.877,0.479l2.415-0.449c-4.933,0.147-13.625-0.177-26.077-0.975c-3.247-0.228-6.309-0.481-9.187-0.763l-4.178-0.441
			c-2.69-0.309-5.2-0.644-7.53-1.005l1.813,0.938l50.468,5.762l3.572-0.252c2.304-0.177,4.45-0.371,6.438-0.581
			c3.979-0.421,7.329-0.909,10.051-1.465c1.36-0.277,2.564-0.572,3.611-0.884l13.149-3.729c-4.692,0.832-9.974,1.517-15.847,2.051
			c-2.938,0.269-6.023,0.499-9.259,0.692c-3.234,0.193-6.618,0.35-10.151,0.469l-5.41,0.151l35.78-4.43L723.551,841.405"/>
	</g>
	<g>
		<path d="M532.297-64.74l-0.645,0.024c-1.708,0.062-3.348,0.102-4.916,0.121L510.94-61.43c1.9-0.234,5.594-0.772,11.08-1.615
			l4.983-0.802L532.297-64.74 M726.818-85.067l-3.423,0.014c-9.07,0.075-17.683,0.448-25.836,1.121L568.838-71.594
			c-11.183,2.263-23.361,4.547-36.534,6.854c11.679-0.08,35.115-2.776,70.31-8.087l123.419-5.685
			c11.713-0.426,22.965-0.589,33.756-0.488c30.327,1.348,55.941,4.133,76.841,8.357l14.791,3.438
			c9.271,2.471,17.364,5.303,24.279,8.493c16.079,8.854,22.945,14.201,20.597,16.04c1.432,8.803-1.584,16.463-9.047,22.98
			c-10.376,4.177-32.815,18.02-67.317,41.529c-15.454,5.854-41.563,11.821-78.328,17.901l-14.285,2.286L589.409,57.326
			c-25.543,0.844-45.647,1.941-60.313,3.292l-52.939-2.015c-27.218-5.418-42.073-8.586-44.566-9.503
			c-16.12-4.016-27.322-7.755-33.608-11.216c-17.859-15.273-25.6-27.253-23.222-35.938c15.248-20.508,27.292-33.375,36.134-38.601
			l28.744-12.953c1.887-0.572,6.171,0.03,12.854,1.808l32.396-8.713l-3.021,0.908l29.063-5.822
			c-8.843,0.788-14.532,1.622-17.068,2.501l7.573-2.037c-4.07-2.333-8.422-3.355-13.053-3.067
			c-2.76,0.019-10.137,1.505-22.133,4.461c-19.33,1.714-30.976,3.167-34.939,4.358c-21.526,7.453-38.21,16.569-50.05,27.348
			C370.512-16.204,364.496-7.78,363.212-2.596c-2.746,6.58-3.684,12.713-2.816,18.4c1.737,11.374,10.704,20.96,26.899,28.761
			c9.554,5.798,29.849,10.718,60.884,14.76c12.832,2.241,47.38,5.033,103.645,8.376c40.979-0.305,79.764-2.223,116.357-5.754
			l27.034-2.951c17.749-2.169,34.949-4.741,51.602-7.716c39.863-7.897,64.418-13.515,73.663-16.851
			c48.242-15.944,73.713-25.836,76.412-29.677c12.385-10.38,17.809-20.911,16.27-31.594l-1.909-7.449
			c-2.021-4.854-5.539-9.481-10.552-13.885c-5.014-4.403-11.523-8.581-19.529-12.534c-8.005-3.953-17.507-7.681-28.505-11.183
			l-15.98-2.765C794.739-81.598,758.117-85.067,726.818-85.067"/>
	</g>
	<g>
		<path d="M918.905-24.914l-1.004,0.051c-3.046,0.186-5.545,2.379-7.497,6.58l-0.77,1.845c0.256,0.172,0.147,1.888-0.325,5.149
			c-0.984,3.962-1.75,6.58-2.297,7.853c-3.085,8.449-5.689,14.074-7.815,16.874c-6.617,9.354-13.229,16.491-19.834,21.409
			c-8.582,12.4-14.068,21.856-16.459,28.37c-7.015,16.385-11.844,37.444-14.487,63.178c-0.24,4.299-0.174,14.118,0.198,29.458
			l3.014,39.233c1.016,9.898,2.412,20.824,4.189,32.778c1.119,8.387,3.936,24.934,8.45,49.642
			c1.714,11.229,2.823,19.837,3.328,25.825c0.954,14.496,1.515,22.076,1.683,22.74l-0.129,51.441
			c1.258,21.088,1.98,30.62,2.168,28.597l-0.381,10.119c0.668,7.35,1.649,11.513,2.945,12.489c0.954,0.64,1.445-3.088,1.473-11.185
			l-0.828-7.968c0.171-3.446,0.017-13.976-0.466-31.587l-4.783-104.849l-5.082-52.29l-6.069-39.37l-0.639-23.606l1.461-25.177
			c8.172-43.597,13.289-66.686,15.354-69.264c1.635-4.53,3.646-8.79,6.031-12.778l37.229-49.438
			c1.141-2.604,1.569-4.752,1.285-6.443c-1.19-6.588-2.48-9.563-3.871-8.925l8.352-9.989L918.905-24.914"/>
	</g>
	<g>
		<path d="M365.945,9.976l-0.685,0.368c-1.811,1.73-3.867,11.776-6.168,30.139c-0.213,2.14,0.256,6.487,1.408,13.042
			c-0.214,5.376-0.304,9.712-0.268,13.007c-0.03,1.149,0.068,3.034,0.293,5.656c0.112,0.867,0.255,1.473,0.43,1.819l17.931,41.295
			l-1.846-4.875l-10.181-36.785l-0.531-14.07l2.902-13.618c0.905-7.233,1.319-11.261,1.242-12.082
			c-0.118-0.536-0.58,1.288-1.383,5.471l-1.895-28.055C366.695,10.321,366.278,9.884,365.945,9.976 M378.886,115.302l14.663,38.718
			l8.626,14.916L378.886,115.302 M402.188,168.967l11.114,25.597c3.36,11.878,5.95,23.793,7.77,35.743l10.276,82.436l-0.039,2.454
			c-1.669,15.75-3.599,29.352-5.789,40.807c-3.907,22.325-6.121,33.057-6.644,32.193c-0.847,10.308-2.452,23.624-4.814,39.95
			c-0.683-0.011-2.269,6.684-4.758,20.084c-5.023,28.05-9.61,55.262-13.762,81.637c-0.387,11.986-0.504,18.411-0.35,19.274
			l7.113,58.853l15.093,60.696c0.142-0.867,5.674,14.714,16.597,46.743l30.903,48.336c-16.427-32.209-33.054-71.603-49.879-118.181
			c-1.251-4.457-3.159-12.769-5.723-24.935l-1.304-8.723c-1.323-10.329-3.553-29.687-6.69-58.072
			c-0.286-0.438-0.422-5.844-0.407-16.218c0.09-4.627,0.3-9.937,0.63-15.927c1.038-16.17,1.805-26.69,2.301-31.561
			c0.42-7.488,1.503-16.754,3.25-27.798c0.469-3.029,0.86-5.233,1.174-6.611l22.183-100.474l9.489-65.078
			c0.334-1.821,0.08-10.787-0.763-26.898c-1.07-12.688-4.169-25.729-9.297-39.125C423.804,209.098,414.578,190.696,402.188,168.967
			 M464.898,763.77l9.967,29.747l-0.545-3.013l-0.682-3.081l-0.819-3.149c-0.592-2.122-1.275-4.289-2.051-6.502
			C469.258,773.41,467.302,768.742,464.898,763.77 M474.869,793.544l0.118,0.766c0.302,2.036,0.506,4.023,0.613,5.964
			c0.135,0.248,0.251,0.386,0.349,0.413c0.008,0.017,0.048,0.007,0.12-0.029l0.073-0.104l0.061-0.174l0.05-0.243l0.038-0.313
			l0.026-0.382c0.014-0.278,0.02-0.603,0.018-0.973l-0.009-0.591l-1.452-4.334H474.869"/>
	</g>
	<g>
		<path d="M538.195,568.502l0.392,0.382c1.025,1.042,1.903,2.278,2.633,3.709l5.816,16.067c0.402,0.956,1.92,3.522,4.555,7.7
			c0.419,1.16,0.62,2.131,0.603,2.914c-0.058,0.616-0.121,0.961-0.19,1.034c-0.239,0.489-0.611,1.034-1.115,1.636
			c-0.087,0.23-1.139,1.258-3.157,3.082c-1.799,1.538-4.127,3.3-6.982,5.285l-4.093,2.135l4.253-0.913
			c0.51-0.104,2.192-1.129,5.048-3.076c3.268-0.709,5.766-1.479,7.496-2.313c1.619-0.833,2.712-1.606,3.279-2.319
			c0.61-0.761,0.921-1.591,0.93-2.489l-1.172-9.796c-0.073-0.854-1.796-6.453-5.167-16.795c-0.158-0.576-0.27-1.373-0.334-2.39
			c-0.013-0.556,0.035-1.045,0.144-1.469L538.195,568.502 M504.084,558.178l0.905,1.356c2.306,3.498,3.741,6.05,4.306,7.656
			l4.452,15.149l2.016,12.538l0.159,1.819c0.353,4.931,0.153,10.5-0.599,16.71c0.055,0.56,0.275,1.177,0.664,1.85
			c0.114,0.299,0.536,0.543,1.263,0.733c0.297,0.054,1.192-0.206,2.688-0.78c1.354,2.169,3.472,3.167,6.352,2.994
			c0.636-0.084,1.24-0.252,1.814-0.504c1.268-1.194,4.116-2.945,8.548-5.252c-5.289,1.073-9.235,1.788-11.84,2.146
			c-2.627,0.312-3.874,0.357-3.742,0.139l-1.133,0.476l-0.214-0.355c-0.628-0.926-1.127-2.744-1.499-5.458
			c-0.072-10.669-0.179-16.574-0.318-17.717c-0.239-3.311-0.725-6.182-1.455-8.615c-0.538-2.038-0.895-3.185-1.068-3.44
			c-0.652-1.389-1.133-2.366-1.444-2.934l-2.461-4.562c-1.584-4.193-2.624-6.776-3.12-7.748
			C507.3,562.311,505.875,560.243,504.084,558.178"/>
	</g>
	<g>
		<path d="M465.891,539.132l-0.926,0.022c-4.855-0.003-9.901,2.347-15.138,7.047c-4.106,3.088-6.729,7.729-7.864,13.922
			c-1.1,4.817-1.641,9.349-1.626,13.593l2.462,23.793l3.642,21.155c-0.159,0.353,1.35,4.015,4.527,10.985l5.652,10.097
			l10.295,13.663c7.266,4.751,13.807,6.896,19.623,6.434c5.51-0.632,10.027-3.226,13.554-7.781c3.062-4.924,4.652-8.18,4.771-9.768
			c0.575-2.3,0.594-4.355,0.056-6.168c-0.19-0.472-0.389-0.429-0.597,0.128c-0.602,2.847-1.289,5.027-2.061,6.541
			c-1.575,3.063-2.801,4.98-3.678,5.751c-2.313,1.968-6.349,3.125-12.106,3.473c-3.762,0.016-7.201-0.855-10.319-2.611
			c-5.811-3.443-10.373-7.225-13.687-11.344c-1.278-2.125-3.144-6.923-5.597-14.395l-6.259-29.421l-0.373-2.552
			c-0.396-3.622-0.387-8.13,0.027-13.521c0.184-4.058,1.235-11.666,3.154-22.827c0.71-2.367,1.913-4.131,3.609-5.293
			c0.894-0.979,3.887-1.722,8.979-2.229c4.775-0.485,11.938,1.787,21.489,6.817c3.189,3.619,4.964,6.283,5.323,7.992l7.878,31.655
			l5.403-1.003c-1.635-5.903-5.913-17.433-12.836-34.589c-1.062-1.733-2.144-3.345-3.246-4.834
			c-3.307-4.466-6.795-7.826-10.465-10.082C474.66,540.62,470.104,539.069,465.891,539.132"/>
	</g>
	<g>
		<path d="M466.128,554.386l-0.074,0.001c-0.551,0.108-0.54,0.482,0.034,1.122l4.507,4.326c0.894,0.878,1.591,1.589,2.093,2.133
			c3.694,4.408,5.725,6.782,6.093,7.121l6.398,6.183c-0.493-1.831-1.079-3.644-1.759-5.438c-0.456-1.355-1.45-3.568-2.981-6.637
			c-2.401-2.61-4.679-4.642-6.83-6.092c-1.075-0.725-2.12-1.305-3.133-1.74l-1.496-0.544l-1.449-0.326L466.128,554.386
			 M485.18,575.278l0.101,0.379c0.133,0.505,0.258,1.012,0.376,1.52l0.561,2.516l0.128,0.882l0.03,0.777l-0.067,0.672l-0.167,0.567
			l-0.265,0.463l-0.362,0.358l-0.462,0.254l-0.56,0.148l4.926-0.613l-2.735-5.937c-0.195-0.355-0.5-0.807-0.915-1.352
			C485.676,575.75,485.479,575.539,485.18,575.278 M490.347,583.085l-0.929,0.116l0.41,0.895c0.048,0.077,0.093,0.138,0.135,0.181
			c0.05,0.047,0.079,0.069,0.087,0.068c0.019,0.008,0.036,0.013,0.053,0.013l0.052-0.016l0.045-0.047l0.04-0.079l0.034-0.11
			l0.027-0.141l0.021-0.173l0.016-0.204l0.01-0.236l0.004-0.267H490.347"/>
	</g>
	<g>
		<path d="M471.583,564.977l-0.428,0.851l0.075-0.091l0.067-0.092l0.062-0.092l0.055-0.094l0.048-0.095l0.042-0.096l0.034-0.097
			l0.028-0.098l0.021-0.098H471.583 M469.841,562.574l-0.15,0.011c-0.401,0.06-0.797,0.357-1.186,0.893
			c-2.319,3.8-3.575,6.038-3.769,6.714l-0.022,0.181c-0.112,0.241-0.362,1.028-0.75,2.361c-0.091,0.257-0.274,1.092-0.553,2.505
			c-0.3,1.812-0.53,4.076-0.689,6.794c0.147-0.86,0.306-1.691,0.476-2.494c0.071-0.437,0.351-1.575,0.838-3.416
			c0.405-1.431,0.855-2.747,1.35-3.947c0.188-0.373,0.437-0.788,0.745-1.246c0.079-0.176,0.679-0.96,1.799-2.354
			c0.981-1.175,2.204-2.522,3.669-4.041c0.021,0.113,0.019,0.256-0.008,0.428l0.433-0.862l-0.421,0.43
			c-0.111-0.576-0.367-1.071-0.768-1.486C470.572,562.767,470.241,562.61,469.841,562.574 M462.714,582.073l-0.011,0.067
			c-0.03,0.178-0.061,0.357-0.09,0.538l-0.052,0.612l-0.043,0.613l-0.032,0.613l-0.023,0.612l-0.015,0.614l-0.004,0.613l0.005,0.614
			l0.016,0.614l0.024,0.614c0.021-1.013,0.048-1.979,0.081-2.897c0.017-0.46,0.034-0.908,0.053-1.344
			c0.02-0.437,0.04-0.861,0.062-1.274l0.034-0.611H462.714 M462.487,588.267l-0.005,0.235c-0.042,5.19-0.021,8.651,0.061,10.383
			c0.027,0.599,0.062,1.019,0.102,1.261l0.065,0.229l0.253,1.326l0.305,1.207l0.358,1.09l0.409,0.973l0.463,0.854l0.514,0.737
			c0.36,0.451,0.756,0.824,1.187,1.119l0.671,0.383l0.061-0.073c0.032-0.07,0.048-0.184,0.045-0.34
			c-0.006-0.468-0.166-1.321-0.48-2.561l-2.501-7.917c-0.251-0.936-0.462-1.77-0.633-2.503c-0.248-1.06-0.421-1.971-0.519-2.733
			C462.67,590.712,462.552,589.488,462.487,588.267"/>
	</g>
	<g>
		<path d="M491.841,610.735l-0.498,0.566c0.052-0.047,0.1-0.093,0.145-0.138c0.107-0.109,0.168-0.174,0.182-0.193
			c0.036-0.041,0.068-0.082,0.098-0.121s0.056-0.077,0.079-0.114H491.841 M488.396,614.657l-0.935,1.065l0.142-0.098l0.132-0.104
			l0.123-0.107l0.114-0.113l0.104-0.118l0.095-0.124l0.086-0.128l0.076-0.134l0.067-0.14H488.396 M466.672,629.934l-0.028,0.005
			c-0.073,0.021-0.134,0.131-0.183,0.328l0.253,0.939l0.281,0.899l0.311,0.859l0.339,0.819l0.369,0.778l0.397,0.739l0.428,0.698
			c0.294,0.453,0.607,0.878,0.941,1.277c-0.274-0.598-0.606-1.381-0.994-2.349c-0.72-1.82-1.294-3.318-1.725-4.495
			c-0.054-0.13-0.132-0.264-0.234-0.401C466.771,629.967,466.719,629.934,466.672,629.934 M469.786,637.289l0.06,0.13
			c0.432,0.913,0.763,1.482,0.996,1.707c0.491,0.598,1.188,1.201,2.09,1.812c1.005,0.587,1.983,1.063,2.934,1.43
			c0.476,0.183,0.943,0.338,1.405,0.466l0.687,0.17c0.455,0.101,0.902,0.172,1.343,0.217c-3.015-1.377-5.155-2.473-6.423-3.288
			C471.652,639.174,470.622,638.293,469.786,637.289 M491.318,611.323l-0.095,0.085c-0.263,0.227-0.595,0.479-0.995,0.753
			l-1.855,0.785c-0.375-0.772-0.842-0.915-1.4-0.428c-1.305,1.765-2.183,3.696-2.632,5.795c-0.291,2.114-0.292,3.874-0.003,5.281
			l0.089,0.464c0.849,2.494,1.509,4.656,1.981,6.486c0.508,2.142,0.757,3.328,0.746,3.558l0.107,0.937l0.091,1.817l-0.016,0.922
			l-0.085,0.837c-0.08,0.53-0.206,1.004-0.379,1.423c-0.172,0.418-0.391,0.78-0.656,1.087l-0.433,0.418
			c-0.664,0.467-1.354,0.837-2.068,1.11c-1.476,0.546-2.947,0.735-4.415,0.567c0.861,0.396,2.127,0.957,3.798,1.683l0.25,0.04
			c1.111,0.11,2.005-0.177,2.682-0.86l1.208-1.322l0.6-0.936l0.503-1.131l0.406-1.325c0.478-1.898,0.695-4.316,0.655-7.256
			l-0.135-3.675c-0.054-0.589-0.146-1.147-0.276-1.677c-0.064-0.264-0.14-0.521-0.224-0.771l-3.11-7.649
			c-0.166-1.053-0.216-1.713-0.149-1.98c0.147-0.742,0.296-1.226,0.444-1.45l0.295-0.479c0.04-0.086,0.232-0.292,0.577-0.618
			c-0.023-0.018-0.016-0.045,0.022-0.082c0.285-0.21,0.794-0.471,1.527-0.783c0.099,0.188,0.177,0.362,0.236,0.521
			c-0.002,0.525-0.07,0.918-0.205,1.178L491.318,611.323"/>
	</g>
	<g>
		<path d="M483.136,593.687l0.041,0.443c0.074,0.641,0.229,1.481,0.461,2.521c0.191,0.867,0.545,2.28,1.063,4.241
			c0.718,2.209,1.874,5.545,3.468,10.005c0.271,0.856,0.51,1.647,0.715,2.372l3.007-3.365c-1.526-1.974-2.674-3.737-3.442-5.291
			c-0.524-1.062-1.229-3.044-2.113-5.947c-0.098-0.269-0.345-0.809-0.742-1.617C484.646,595.432,483.826,594.312,483.136,593.687
			 M488.88,613.274l-1.879,2.102c0.467,0.112,0.869,0.148,1.21,0.107l0.239-0.051l0.202-0.086l0.165-0.12l0.127-0.155l0.09-0.188
			l0.053-0.224l0.015-0.258c-0.014-0.232-0.03-0.389-0.051-0.469C488.981,613.627,488.925,613.407,488.88,613.274"/>
	</g>
	<g>
		<path d="M765.647,817.689h-0.018l-0.436,0.241l-1.571,1.446l-8.701,14.87c-0.005-0.621-0.047-0.889-0.124-0.803
			c-0.225,0.764-0.377,1.764-0.456,3c-0.058,1.24,0.105,2.979,0.492,5.217c0.624,3.913,1.328,7.41,2.111,10.49
			c0.694,2.663,1.212,4.452,1.552,5.366c0.921,2.797,2.777,8.17,5.569,16.12c-0.79-5.904-1.207-9.381-1.251-10.43
			c-0.165-2.279-0.154-5.935,0.032-10.965c-0.675-6.754-0.997-10.532-0.967-11.336c0.064-1.303,0.169-2.292,0.313-2.966
			c1.244-4.379,1.955-6.957,2.135-7.734c0.354-1.395,0.604-2.518,0.75-3.371c0.136-0.726,0.108-2.476-0.084-5.251
			c-0.007-0.498,0.265-1.685,0.813-3.56C765.81,817.777,765.757,817.665,765.647,817.689 M764.071,873.672l0.076,0.568
			c0.404,3.002,0.672,4.952,0.801,5.85l0.156,0.84c0.496,2.13,0.977,3.816,1.44,5.06c0.266,0.771,0.562,1.579,0.886,2.427
			l6.895,14.762c-1.095-4.027-1.748-6.265-1.959-6.712l-4.97-9.464C765.402,878.46,764.293,874.018,764.071,873.672
			 M774.336,903.218L774.336,903.218l0.574,2.125c0.41,1.195,0.784,2.259,1.121,3.188l0.479,1.296
			c0.301,0.798,0.565,1.462,0.794,1.993l0.315,0.698l0.261,0.498l0.206,0.299l0.151,0.1c0.042-0.01,0.064-0.023,0.068-0.04
			c0.039-0.055,0.063-0.163,0.07-0.325l0.06-0.13l0.025-0.174c0.014-0.392-0.182-1.046-0.587-1.961l-3.531-7.567H774.336"/>
	</g>
	<g>
		<path d="M467.881,766.596L467.881,766.596l-0.011,0.017l-0.006,0.042l-0.001,0.068c0,0.054,0.005,0.124,0.012,0.212
			c0.016,0.175,0.043,0.419,0.084,0.729l0.343,0.318l-0.163-0.631c-0.037-0.142-0.071-0.263-0.101-0.364
			c-0.03-0.102-0.056-0.184-0.078-0.245l-0.03-0.079l-0.025-0.049l-0.019-0.019H467.881 M468.303,767.988l0.369,1.416
			c2.165,8.28,3.274,14.162,3.328,17.646l1.007,22.432c-0.229,7.784-0.644,14.839-1.247,21.166l-9.407,64.437
			c-0.961,2.242-3.469,13.037-7.524,32.385l-5.104,16.68c1.341-2.671,2.364-4.289,3.069-4.854c4.54-1.679,6.853-3.073,6.937-4.185
			c0.647-0.662,2.386-4.978,5.216-12.947c0.55-1.516,1.068-3.18,1.558-4.991c2.32-11.153,3.881-17.649,4.681-19.489l5.932-28.728
			l0.21-1.82l0.183-2.399c0.165-13.282,0.54-26.701,1.124-40.259l-0.724-13.602c-1.4-9.979-2.176-17.873-2.326-23.681
			c-0.63-4.668-1.215-8.283-1.754-10.846c-0.185-1.66-0.236-2.781-0.155-3.364L468.303,767.988"/>
	</g>
	<g>
		<path d="M477.895,658.241l-0.148,0.023c-0.211,0.062-0.479,0.249-0.805,0.562s-0.707,0.749-1.146,1.312l-0.132,0.115
			c-0.099,0.137-0.22,0.392-0.363,0.765l-0.231,0.648c-0.056,0.098-0.354,1.102-0.897,3.012c-0.233,0.847-0.488,1.812-0.767,2.895
			c-0.003-0.028-0.033-0.012-0.089,0.05c-0.043,0.078-0.088,0.233-0.134,0.467c-0.138,0.7-0.286,2.102-0.446,4.203
			c0.207-1.41,0.59-3.517,1.148-6.32l0.215-0.59l0.329-0.63l0.444-0.669l0.559-0.71c0.821-0.972,1.948-2.051,3.381-3.235
			l-0.48-0.786c0.005-0.165,0.002-0.312-0.01-0.439c-0.043-0.287-0.079-0.438-0.108-0.452
			C478.141,658.313,478.034,658.241,477.895,658.241 M472.725,672.369l-0.02,0.147l-1.769,24.668l-0.014,1.487
			c0.024,4.482,0.629,14.638,1.813,30.465c0.047,1.371-0.162,4.825-0.629,10.364c-0.038,1.608,0.013,3.742,0.151,6.4
			c0.304,6.351,0.87,13.619,1.696,21.808c-0.031,5.097-0.479,8.801-1.347,11.112c-1.521,2.396-3.243,2.317-5.166-0.236
			c-0.555-1.538-1.41-6.122-2.569-13.753c-1.054-4.777-1.862-8.269-2.425-10.473c-1.221-4.142-2.613-7.619-4.178-10.433
			c-8.873-11.94-13.859-17.234-14.96-15.884c-0.064,0.562,0.021,1.303,0.257,2.225c0.515,1.737,1.043,3.171,1.586,4.303
			l10.987,17.584c1.334,2.576,3.261,7.184,5.78,13.824c1.158,3.172,1.872,5.444,2.141,6.818l1.515,14.497
			c0.278,1.574,0.638,2.761,1.077,3.559c0.36,0.956,0.903,1.035,1.627,0.238c2.146-4.547,3.987-7.655,5.525-9.324
			c1.728-6.039,2.608-9.814,2.643-11.326l0.222-13.492l-0.804-27.893c-0.198-2.174-0.506-4.739-0.922-7.698
			c-0.272-6.918-0.549-11.841-0.829-14.771l-1.698-11.699c-0.127-0.759-0.245-2.113-0.354-4.063
			C471.785,688.923,472.006,682.771,472.725,672.369"/>
	</g>
	<g>
		<path d="M452.989,936.926l-11.18,1.39c-0.11,0.387-0.244,0.706-0.399,0.959l2.466-0.214l2.171-0.226l1.877-0.237l1.582-0.249
			l1.287-0.261l0.992-0.272l0.697-0.284l0.403-0.297L452.989,936.926 M441.405,939.274l-0.973,0.074l-3.711,0.25l-134.586,41.13
			c-18.436,7.64-31.966,14.056-40.591,19.248c-24.654,15.394-46.367,31.441-65.139,48.145c-5.236,3.734-19.539,17.812-42.908,42.229
			c-9.183,10.103-18.132,20.684-26.846,31.742c43.178-48.955,83.952-85.26,122.32-108.914c22.584-12.95,51.391-26.604,86.421-40.963
			l14.035-5.131l73.539-18.049C434.869,944.771,441.015,941.517,441.405,939.274"/>
	</g>
	<g>
		<path d="M772.463,900.484l-1.558,1.143c-3.972,3.848-6.487,14.115-7.547,30.804c-5.867,11.554-12.481,19.831-19.845,24.831
			c-6.678,5.907-27.197,15.363-61.561,28.367c-4.067,1.506-18.85,4.133-44.345,7.884c-22.687,2.213-40.259,2.521-52.719,0.926
			l-47.143-7.71l-29.604-7.023c-4.369-1.079-15.394-6.01-33.075-14.793c-9.779-8.189-14.814-12.539-15.104-13.05l-4.013-5.723
			l-1.405-2.956c-0.591-2.067-0.959-3.147-1.104-3.237l0.235,0.774l-3.93-2.667c6.089,10.724,11.657,18.063,16.705,22.021
			c24.144,17.185,43.275,29.073,57.396,35.666l37.648,12.056c2.298,0.836,8.282,1.897,17.953,3.184
			c19.957,2.568,41.014,2.29,63.169-0.835c9.788-1.104,30.225-6.623,61.31-16.559c16.186-8.152,27.529-15.136,34.033-20.95
			c3.613-3.86,8.188-9.688,13.727-17.484c3.175-7.509,9.63-18.414,19.365-32.716C772.949,918.488,773.419,911.172,772.463,900.484"
			/>
	</g>
	<g>
		<path d="M774.053,888.967l-0.639,0.009c-1.729,0.044-3.646,0.266-5.75,0.664c1.287-0.24,2.624-0.293,4.011-0.16l1.505,0.215
			l1.543,0.358l1.579,0.501l1.617,0.644l1.655,0.787l1.691,0.931l1.73,1.074l1.767,1.217l-0.725-1.588l-0.707-1.09l-0.862-0.944
			l-1.017-0.8l-1.171-0.654l-1.326-0.509l-1.479-0.363l-1.634-0.218L774.053,888.967 M784.768,895.215l11.804,24.269
			c0.327,1.343,0.523,3.528,0.588,6.557c0.024,4.154-0.001,6.899-0.074,8.236l-0.296,7.071l1.434-5.135l0.907-4.996l0.382-4.857
			l-0.146-4.719l-0.671-4.578l-1.196-4.44l-1.724-4.301l-2.249-4.162l-2.775-4.023C788.254,897.884,786.26,896.243,784.768,895.215
			 M796.779,941.377L796.779,941.377c-0.837,2.563-1.865,5.178-3.085,7.843l-0.95,2.008c-0.658,1.345-1.364,2.702-2.117,4.073
			c-0.754,1.37-1.555,2.753-2.404,4.148l2.278-2.617l1.944-2.427l1.611-2.236l1.277-2.045l0.943-1.854l0.609-1.662l0.276-1.472
			l-0.058-1.281l-0.391-1.089L796.779,941.377 M415.102,954.129l-0.335,0.032c-0.875,0.172-1.595,1.028-2.159,2.571l8.941,10.253
			c-0.575-1.543-1.127-3.132-1.654-4.766c-0.907-2.891-1.53-5.004-1.868-6.34c-0.604-0.599-0.957-0.922-1.063-0.973
			c-0.227-0.173-0.446-0.317-0.66-0.433C415.877,954.244,415.477,954.129,415.102,954.129 M421.552,966.993l1.762,4.409l1.899,4.148
			c1.312,2.678,2.715,5.181,4.209,7.51c2.989,4.658,6.345,8.618,10.066,11.88c15.723,12.529,29.443,20.767,41.161,24.71
			c-9.174-5.81-19.362-13.385-30.565-22.727C443.571,991.531,434.061,981.554,421.552,966.993 M788.199,959.477l-2.096,2.264
			c-20.784,20.603-38.494,34.799-53.13,42.588c-33.064,12.862-60.441,21.962-82.131,27.297l-5.625,1.016
			c-3.769,0.356-5.594,0.451-5.475,0.284c-22.5,3.01-37.085,4.711-43.754,5.104c-14.99,1.25-26.678,1.57-35.062,0.962
			c-16.047-2.289-29.935-4.808-41.662-7.556c-9.815-1.902-22.686-5.829-38.611-11.78c9.141,5.564,15.523,8.865,19.15,9.902
			c13.655,5.001,32.559,10.348,56.709,16.041l45.623,4.995c8.078,0.249,19.204-0.867,33.377-3.35
			c9.916-2.201,17.095-4.202,21.535-6.003l77.225-34.706l3.597-1.956c9.945-5.687,22.722-15.133,38.329-28.339
			C781.801,969.223,785.801,963.635,788.199,959.477"/>
	</g>
	<g>
		<path d="M453.573,953.272l-0.081,0.009c-0.233,0.043-0.612,0.263-1.138,0.656l-11.426,10.159l-3.253,2.765
			c8.675-5.999,13.12-9.167,13.337-9.504c0.53-0.498,0.804-0.78,0.821-0.847c0.109-0.101,0.217-0.319,0.319-0.656l1.428-1.647
			c0.164-0.442,0.228-0.692,0.188-0.75C453.755,953.334,453.689,953.272,453.573,953.272 M437.65,966.879l-0.38,0.263
			c-0.746,0.51-1.358,0.968-1.839,1.376c-0.125,0.104-0.243,0.208-0.355,0.31c-0.044,0.05-0.075,0.089-0.094,0.116
			c-0.021,0.027-0.024,0.045-0.011,0.052c0.074-0.029,0.142-0.068,0.202-0.115c0.222-0.153,0.617-0.462,1.186-0.924l1.154-0.959
			l0.141-0.118H437.65"/>
	</g>
	<g>
		<path d="M468.611,971.718l-0.539,0.097c-0.699,0.16-1.326,0.45-1.879,0.871c-0.161,0.064-0.535,0.453-1.121,1.166
			c-2.369,4.36-4.722,8.341-7.059,11.943c-1.221,1.882-2.491,3.75-3.811,5.605c-1.319,1.854-2.688,3.696-4.105,5.524l-2.163,2.731
			c2.581-2.974,5.253-5.884,8.017-8.729c4.037-3.857,8.855-8.593,14.455-14.205c0.98-0.835,1.959-1.462,2.937-1.88
			c0.489-0.209,0.978-0.366,1.466-0.471c0.273-0.114,0.977-0.156,2.107-0.126L468.611,971.718"/>
	</g>
	<g>
		<path d="M497.666,985.017l-0.188,0.019c-1.036,0.194-2.699,1.908-4.99,5.143c-1.067,1.337-2.379,3.928-3.934,7.771
			c-1.802,4.742-3.622,10.538-5.46,17.39c-0.458,1.924-0.739,3.463-0.845,4.616c-0.053,0.577-0.062,1.058-0.027,1.441l0.086,0.503
			c0.147,0.423,0.254,0.594,0.319,0.515c0.559-0.014,2.088-2.195,4.587-6.544l1.348-2.521c0.949-2.096,2.425-5.13,4.428-9.103
			c1.813-3.49,3.289-6.182,4.427-8.075c0.957-1.695,2.678-3.995,5.162-6.899l-3.943-3.143
			C498.533,985.475,498.21,985.104,497.666,985.017"/>
	</g>
	<g>
		<path d="M531.098,1001.896l0.112,0.778c0.051,0.26,0.122,1.035,0.212,2.326c0.052,1.032,0.049,2.06-0.011,3.085l-0.998,11.111
			c-0.386,4.622-0.587,7.15-0.604,7.585c-0.077,0.902-0.168,2.554-0.274,4.953c-0.015,0.373,0.023,1.028,0.117,1.965
			c0.143,1.019,0.465,1.663,0.966,1.935c0.396,0.071,0.732-0.382,1.007-1.359c0.104-0.294,0.177-0.551,0.219-0.771
			c0.161-0.788,0.271-1.387,0.332-1.795c0.468-3.722,0.948-6.966,1.44-9.733l0.495-2.552c0.23-1.099,0.476-2.152,0.735-3.158
			c0.481-2.283,1.429-4.288,2.841-6.016L531.098,1001.896"/>
	</g>
	<g>
		<path d="M581.844,1010.601l-0.002,0.001c-0.003,0.002-0.007,0.013-0.01,0.031c-0.003-0.003-0.007-0.004-0.011-0.005l-0.022,0.017
			l-0.023,0.049l-0.025,0.081l-0.027,0.114l-0.028,0.146l-0.03,0.179l-0.032,0.212c-0.022,0.151-0.046,0.325-0.07,0.52l0.375,0.459
			l-0.006-0.817c-0.004-0.093-0.016-0.275-0.033-0.547c-0.007-0.098-0.014-0.179-0.02-0.243
			C581.865,1010.666,581.854,1010.601,581.844,1010.601 M581.937,1012.403l0.039,5.637c0.168,8.214,0.245,13.308,0.232,15.281
			c0.001,2.164-0.078,4.792-0.237,7.884c0.033,0.85,0.092,1.431,0.177,1.742c0.029,0.104,0.061,0.178,0.094,0.222
			c0.134,0.12,0.253,0.179,0.358,0.175c0.069,0.097,0.267-0.078,0.59-0.526c0.128-0.233,0.254-0.545,0.378-0.935
			c0.197-0.502,0.487-1.87,0.87-4.105c0.222-1.364,0.463-3.156,0.725-5.377c0.157-1.774,0.336-4.246,0.536-7.416
			c-0.008,0.001,0.077-0.863,0.257-2.594c0.052-0.538,0.302-1.922,0.751-4.15L581.937,1012.403"/>
	</g>
	<g>
		<path d="M654.418,1005.42l-11.468,4.632c-0.982-1.245-2.236-1.521-3.764-0.828c-0.496,0.166-1.179,0.551-2.048,1.153
			c-0.519,0.318-2.223,1.552-5.111,3.703c-0.762,0.496-1.656,0.985-2.684,1.467l13.608-5.493c0.552,0.762,0.96,1.556,1.226,2.382
			c2.622,10.152,4.212,15.792,4.771,16.92l0.189,0.194c0.137,0.332,0.51,0.981,1.117,1.949c0.239,0.347,0.472,0.635,0.697,0.866
			c0.685,0.682,1.297,0.866,1.837,0.554c0.669-0.344,1.054-1.386,1.155-3.125c-0.391-2.967-0.576-6.22-0.557-9.76
			c0.01-1.77,0.071-3.61,0.184-5.523l0.208-2.923C653.945,1009.604,654.158,1007.548,654.418,1005.42"/>
	</g>
	<g>
		<path d="M704.063,990.52l-2.378,1.804c-0.478-0.603-0.885-0.795-1.223-0.576c-0.201,0.134-0.361,0.402-0.48,0.808
			c-0.124,0.318-0.217,0.6-0.276,0.844c-0.062,0.289-0.089,0.451-0.082,0.486l2.063-1.559c0.299,0.387,0.613,0.94,0.942,1.66
			c0.479,1.052,0.87,2.408,1.174,4.069c0.254,1.465,0.501,3.629,0.741,6.494c0.029,0.299,0.177,1.074,0.441,2.325
			c0.402,1.473,0.852,2.112,1.348,1.919c0.221-0.222,0.324-0.801,0.311-1.738c-0.054-1.099-0.175-2.409-0.365-3.934
			c-0.313-2.411-0.624-4.416-0.93-6.014C705.001,995.176,704.572,992.979,704.063,990.52"/>
	</g>
	<g>
		<path d="M744.229,967.805l-8.2,7.406c-0.305-0.896-0.404-0.806-0.3,0.271l0.301-0.265c2.423,7.235,4.206,11.769,5.352,13.6
			c0.582,0.864,1.223,1.646,1.924,2.347c0.173,0.225,0.652,0.582,1.438,1.072c0.901,0.5,1.802,0.477,2.701-0.07
			c0.396-0.324,0.787-0.98,1.172-1.97c0.172-0.73,0.184-1.324,0.035-1.782c-0.066-0.262-0.163-0.522-0.292-0.783
			c-0.745-1.42-1.645-3.191-2.698-5.316c-0.511-1.104-0.828-1.835-0.952-2.196c-0.973-2.83-1.592-5.447-1.856-7.852
			c-0.119-0.85-0.07-1.825,0.146-2.928C743.096,969.034,743.506,968.523,744.229,967.805"/>
	</g>
	<g>
		<path d="M755.687,957.155l-0.011,0.001c-0.116,0.009-0.093,0.213,0.071,0.611c0.263,0.56,0.545,1.113,0.845,1.663l1.569-0.182
			l-2.2-1.962C755.858,957.21,755.767,957.166,755.687,957.155 M752.357,959.021l-0.011,0.016c-0.023,0.071-0.01,0.365,0.042,0.88
			l0.19-0.021c0.379,1.771,0.739,3.256,1.08,4.455c0.091,0.389,0.335,1.127,0.733,2.214c0.788,1.861,1.903,3.637,3.348,5.325
			c0.813,1.017,1.994,2.042,3.541,3.074l7.873,3.778c0.116,0,0.194-0.03,0.232-0.091c0.17-0.234-0.155-0.971-0.975-2.208
			c-0.949-1.465-3.477-4.902-7.582-10.313c-1.622-2.361-3.034-4.595-4.237-6.7l-4.014,0.464l-0.167-0.793
			C752.385,959.038,752.366,959.011,752.357,959.021"/>
	</g>
	<g>
		<path d="M764.503,931.689l-0.071,0.013l-0.059,0.036l-0.046,0.062l-0.032,0.085l-0.02,0.11l-0.007,0.134l0.006,0.159
			c0.009,0.114,0.025,0.244,0.051,0.391l0.071,0.181l0.096,0.186l0.122,0.188c0.09,0.128,0.196,0.258,0.32,0.391
			c0.247,0.266,0.563,0.542,0.946,0.829l-0.323-1.958c-0.219-0.239-0.41-0.425-0.573-0.557l-0.118-0.09l-0.106-0.069l-0.096-0.05
			l-0.086-0.03L764.503,931.689 M765.889,938.797L765.889,938.797c-0.004,0.001-0.006,0.004-0.007,0.01l-0.026,0.028l-0.013,0.032
			l0.001,0.035l0.014,0.038l0.027,0.042l0.041,0.044l0.055,0.048l0.067,0.05l0.081,0.054c-0.061-0.112-0.109-0.2-0.147-0.263
			c-0.02-0.031-0.036-0.057-0.05-0.075l-0.019-0.023l-0.014-0.015L765.889,938.797 M765.882,934.459l0.826,5.021
			c-0.192-0.087-0.385-0.186-0.575-0.294c0.232,0.442,0.495,0.969,0.787,1.577l-0.203-1.279c0.299,0.145,0.882,0.375,1.748,0.693
			l11.639,3.835l0.784,0.229c0.938,0.265,1.73,0.416,2.379,0.455c0.292-0.026,0.458-0.087,0.498-0.183
			c0.083-0.097,0.125-0.233,0.128-0.409c-0.209-0.479-0.517-0.854-0.923-1.121c-0.432-0.336-1.011-0.699-1.737-1.093
			c-1.304-0.683-2.319-1.186-3.049-1.508c-3.623-1.467-5.906-2.429-6.851-2.887C769.243,936.515,767.426,935.503,765.882,934.459"/>
	</g>
	<g>
		<path d="M769.826,903.666l-0.282,2.094c0.005,0.054,0.016,0.124,0.034,0.211L769.826,903.666 M769.575,905.993l-1.337,12.417
			c-1.549-0.532-2.442-0.77-2.683-0.714c-0.202,0.144-0.263,0.273-0.182,0.388c0.102,0.218,0.346,0.43,0.733,0.636
			c0.492,0.214,1.183,0.294,2.071,0.241l0.066-0.549c1.982,0.618,4.924,2,8.825,4.146c0.895,0.305,1.555,0.478,1.981,0.518
			c1.363-0.103,2.403-0.417,3.12-0.941c0.374-0.264,0.683-0.582,0.926-0.955l0.316-0.601c0.178-0.427,0.291-0.909,0.338-1.445
			c-0.005-0.894-0.061-1.422-0.165-1.587c-0.102-0.344-0.247-0.682-0.436-1.014c-0.359-0.635-0.926-1.305-1.7-2.009
			c-0.329-0.333-3.553-2.341-9.67-6.022C770.563,907.663,769.827,906.827,769.575,905.993"/>
	</g>
	<g>
		<path d="M942.553,890.601l-86.41,0.09c-12.04,0.852-27.854,1.354-47.439,1.509c-3.86,0.172-8.777,0.845-14.751,2.019
			c1.779-1.307,2.097-1.896,0.952-1.767l-17.642,4.613c-0.84,0.33-1.047,0.572-0.623,0.727l1.11,0.166
			c7.252-1.833,12.648-3.079,16.191-3.736l-2.01,4.924c1.43-0.674,3.409-1.272,5.938-1.796l4.206-0.729
			c3.08-0.449,6.71-0.823,10.89-1.122c8.359-0.599,18.92-0.897,31.681-0.897c5.76-0.04,9.709,0.067,11.847,0.322
			c5.583,0.407,14.221,1.223,25.913,2.446c5.312-0.581,27.83-0.135,67.557,1.339c23.168,4.135,45.246,15.987,66.237,35.557
			c-8.264-10.806-20.092-22.73-35.484-35.774c-2.148-1.078-3.887-1.767-5.217-2.066L942.553,890.601 M1016.229,934.3l0.901,1.124
			c2.398,3.004,4.75,6.085,7.056,9.242l75.614,106.765c0.023-0.562-0.669-2.411-2.077-5.551c-2.956-6.38-5.836-12.318-8.638-17.814
			l-13.42-14.996l-12.876-21.889c-1.237,0.163-15.123-17.251-41.658-52.242L1016.229,934.3"/>
	</g>
	<g>
		<path d="M398.46,952.815l-0.035,0.001c-0.094,0.006-0.187,0.037-0.277,0.093l0.397,0.933c0.066,0.15,0.263,0.638,0.589,1.462
			c0.26,0.666,0.517,1.355,0.771,2.067l0.465-1.797c-0.31-0.817-0.607-1.453-0.894-1.907l-0.212-0.307l-0.208-0.238l-0.203-0.171
			l-0.199-0.102L398.46,952.815 M399.903,957.377l-1.509,5.827c0.597-0.179,1.283-0.065,2.062,0.338l0.373,0.233
			c0.25,0.172,0.503,0.379,0.758,0.62c0.256,0.24,0.514,0.517,0.773,0.827C401.391,961.78,400.571,959.165,399.903,957.377
			 M402.362,965.229l0.646,2.427c1.706,6.621,3.273,14.453,4.703,23.496l2.697,7.394c2.399,6.484,3.909,10.242,4.527,11.274
			l7.539,10.812c2.464,3.271,4.957,6.303,7.479,9.097c6.357,6.569,10.206,10.226,11.548,10.968c2.61,2.08,5.249,3.923,7.918,5.527
			c3.292,2.815,6.841,5.463,10.646,7.941c2.71,1.954,7.867,4.791,15.473,8.51c-22.35-19.848-37.267-34.403-44.751-43.667
			c-8.871-15.246-15.571-27.104-20.101-35.577c-1.811-3.176-3.986-7.625-6.528-13.347l-0.549-1.909
			c0.23-0.643,0.354-0.852,0.371-0.626C403.315,966.463,402.775,965.689,402.362,965.229 M475.545,1062.678l1.076,0.968l1.364,1.223
			l3.778,1.957l4.279,1.829l4.779,1.701l5.28,1.574l5.78,1.445l6.282,1.318l6.782,1.191l7.282,1.063l7.783,0.936l-6.936-1.109
			l-6.715-1.256l-6.493-1.399l-6.272-1.545c-4.108-1.077-8.069-2.252-11.882-3.523l-5.609-1.979
			C482.44,1065.703,478.921,1064.238,475.545,1062.678 M819.142,891.672l5.171,5.969c6.305,8.31,10.248,18.028,11.829,29.155
			c2.146,9.245,0.801,23.664-4.033,43.257c-1.32,3.714-3.023,7.327-5.11,10.84c-5.89,8.605-9.883,13.647-11.981,15.127
			c-1.185,2.683-14.485,12.439-39.905,29.269c-15.701,9.733-32.48,18.265-50.335,25.595l-13.593,5.271l-35.914,12.234
			c-26.263,4.772-63.643,8.72-112.141,11.843c-9.703-0.321-20.737-1.104-33.102-2.346c6.47,1.032,15.394,1.964,26.771,2.793
			l6.329-0.447c15.253,0.658,28.024,0.709,38.313,0.152c22.634-1.269,44.591-4.088,65.871-8.457
			c4.189-0.646,24.325-7.255,60.406-19.827l82.301-45.252c11.285-9.636,18.194-17,20.729-22.092
			c6.326-9.922,10.137-20.367,11.433-31.336c0.449-11.573,0.43-22.2-0.061-31.882l-6.257-19.279L819.142,891.672"/>
	</g>
	<g>
		<path d="M143.858,1106.631l-0.86,0.215c-2.402,1.367-3.992,3.555-4.771,6.562l-6.234,22.208l-8.271,24.146
			c-3.933,13.358-8.425,27.691-13.477,43.001c-5.676,23.273-11.145,43.629-16.407,61.068L143.858,1106.631"/>
	</g>
	<g>
		<path d="M355.844,1263.294l-0.368,0.029c-0.972,0.156-1.864,0.938-2.677,2.348l9.691,4.662l-0.826-1.478l-0.805-1.304l-0.782-1.13
			l-0.76-0.955l-0.739-0.782l-0.716-0.608l-0.694-0.435l-0.673-0.261L355.844,1263.294 M362.491,1270.335l0.024,0.046
			c0.065,0.121,0.13,0.244,0.195,0.369l0.128-0.249l-0.344-0.166H362.491 M362.708,1270.754l-1.083,2.178
			c-1.355,2.821-2.356,5.305-3.002,7.45c-0.272,0.642-0.557,2.062-0.854,4.259c-0.13,3.512-0.093,6.23,0.113,8.156l1.562,10.096
			c0.348,2.693,0.552,5.005,0.61,6.934c0.066,4.371,0.072,7.012,0.02,7.921c-0.498,8.822-0.74,13.812-0.726,14.97l0.162,28.442
			c-0.014,1.977-0.224,5.523-0.629,10.642c-1.542,15.079-2.499,25.219-2.87,30.419l-0.921,14.796l-2.004,17.912
			c-0.102,1.958-0.17,3.723-0.207,5.292c-0.033,3.583-0.014,5.5,0.058,5.75c0.123,1.973,0.376,3.168,0.761,3.585
			c1.077-4.109,2.031-8.463,2.862-13.061c1.371-8.214,2.218-14.342,2.542-18.385l1.699-19.415
			c0.87-13.956,1.501-23.138,1.892-27.546c0.12-2.207,1.103-11.959,2.947-29.258c0.038-0.412,0.137-1.906,0.297-4.484
			c0.235-5.868,0.458-10.606,0.667-14.214c0.121-2.1,0.273-4.307,0.458-6.622c0.113-1.621,0.605-6.039,1.478-13.255l0.121-1.821
			c0.106-1.78,0.13-4.063,0.071-6.847l-0.176-3.116c-0.167-2.054-0.431-4.059-0.792-6.016
			C366.4,1279.131,364.714,1274.21,362.708,1270.754"/>
	</g>
	<g>
		<path d="M949.759,1094.749h-0.044c-0.116,0.002-0.232,0.011-0.35,0.026c-0.354,0.136-0.665,0.352-0.932,0.649
			c-0.266,0.297-0.486,0.675-0.664,1.135c-0.177,0.459-0.309,1-0.396,1.621l-0.099,0.993c-0.043,0.702-0.041,1.486,0.005,2.351
			l11.708,11.443c-2.108-7.767-3.416-12.117-3.924-13.053l-0.153-0.19c-0.368-0.737-0.739-1.393-1.113-1.966
			s-0.751-1.064-1.131-1.474c-0.38-0.41-0.763-0.737-1.149-0.983l-0.581-0.307C950.546,1094.831,950.154,1094.749,949.759,1094.749
			 M958.99,1112.98l0.499,1.845l5.205,19.846c0.409,1.578,0.824,3.538,1.246,5.882c0.576,2.887,1.105,6.903,1.588,12.05
			c0.711,13.944,1.276,22.177,1.696,24.694c5.365,22.854,8.27,37.02,8.711,42.495l0.073,1.752l2.896,39.624l-0.299,15.134
			c0.268,3.667,0.475,8.259,0.623,13.775c0.145,3.618,0.237,11.959,0.278,25.023c0.234-10.998,0.766-21.845,1.592-32.542
			c0.094-2.019,0.063-6.688-0.09-14.012c-0.104-3.848-1.31-17.238-3.616-40.173l-1.385-19.948l-0.967-9.756
			c-1.468-12.075-4.643-29.9-9.522-53.475c-1.08-7.106-2.135-14.447-3.162-22.02c-0.474-3.62-0.642-5.438-0.505-5.452
			L958.99,1112.98"/>
	</g>
</g>
<path d="M666.5,730.333c0,0,22,7.833,40.167,4s36.167-11,51.167-18.5s19.288-11.058,19.288-11.058l-20.955,31.391l-23.833,12.167
	l-27.667,6.333l-8.404,1.197l-3.891,1.264l-7.538-0.46l-7.516-3.136L675.5,751l-4.666-9.167"/>
<polygon points="502.75,557.875 549.625,570.25 553,595 554.625,604.375 541,610.625 533.375,613.875 520.625,615.75 518,614.5 
	515.625,585.625 513.625,578.625 510.125,569.625 508.25,564.75 506.5,561 "/>
</svg>
